%TF.GenerationSoftware,KiCad,Pcbnew,5.1.9*%
%TF.CreationDate,2021-04-13T03:12:43+02:00*%
%TF.ProjectId,_autosave-keycap,5f617574-6f73-4617-9665-2d6b65796361,rev?*%
%TF.SameCoordinates,Original*%
%TF.FileFunction,Legend,Bot*%
%TF.FilePolarity,Positive*%
%FSLAX46Y46*%
G04 Gerber Fmt 4.6, Leading zero omitted, Abs format (unit mm)*
G04 Created by KiCad (PCBNEW 5.1.9) date 2021-04-13 03:12:43*
%MOMM*%
%LPD*%
G01*
G04 APERTURE LIST*
%ADD10C,0.120000*%
%ADD11C,0.160000*%
%ADD12C,0.150000*%
%ADD13C,0.100000*%
G04 APERTURE END LIST*
D10*
X128117600Y-106324400D02*
X114147600Y-106324400D01*
X128117600Y-120294400D02*
X128117600Y-106324400D01*
X114147600Y-120294400D02*
X128117600Y-120294400D01*
X114147600Y-106324400D02*
X114147600Y-120294400D01*
%TO.C,C1*%
X120370548Y-109106380D02*
X121793052Y-109106380D01*
X120370548Y-107286380D02*
X121793052Y-107286380D01*
%TO.C,D1*%
X122147700Y-119692500D02*
X120447700Y-119692500D01*
X120447700Y-119692500D02*
X120447700Y-116542500D01*
X122147700Y-119692500D02*
X122147700Y-116542500D01*
%TO.C,J6*%
D11*
X128041314Y-115374000D02*
X128127028Y-115331142D01*
X128255600Y-115331142D01*
X128384171Y-115374000D01*
X128469885Y-115459714D01*
X128512742Y-115545428D01*
X128555600Y-115716857D01*
X128555600Y-115845428D01*
X128512742Y-116016857D01*
X128469885Y-116102571D01*
X128384171Y-116188285D01*
X128255600Y-116231142D01*
X128169885Y-116231142D01*
X128041314Y-116188285D01*
X127998457Y-116145428D01*
X127998457Y-115845428D01*
X128169885Y-115845428D01*
X127612742Y-116231142D02*
X127612742Y-115331142D01*
X127098457Y-116231142D01*
X127098457Y-115331142D01*
X126669885Y-116231142D02*
X126669885Y-115331142D01*
X126455600Y-115331142D01*
X126327028Y-115374000D01*
X126241314Y-115459714D01*
X126198457Y-115545428D01*
X126155600Y-115716857D01*
X126155600Y-115845428D01*
X126198457Y-116016857D01*
X126241314Y-116102571D01*
X126327028Y-116188285D01*
X126455600Y-116231142D01*
X126669885Y-116231142D01*
%TO.C,J1*%
X116363600Y-110200342D02*
X116063600Y-111100342D01*
X115763600Y-110200342D01*
X114949314Y-111014628D02*
X114992171Y-111057485D01*
X115120742Y-111100342D01*
X115206457Y-111100342D01*
X115335028Y-111057485D01*
X115420742Y-110971771D01*
X115463600Y-110886057D01*
X115506457Y-110714628D01*
X115506457Y-110586057D01*
X115463600Y-110414628D01*
X115420742Y-110328914D01*
X115335028Y-110243200D01*
X115206457Y-110200342D01*
X115120742Y-110200342D01*
X114992171Y-110243200D01*
X114949314Y-110286057D01*
X114049314Y-111014628D02*
X114092171Y-111057485D01*
X114220742Y-111100342D01*
X114306457Y-111100342D01*
X114435028Y-111057485D01*
X114520742Y-110971771D01*
X114563600Y-110886057D01*
X114606457Y-110714628D01*
X114606457Y-110586057D01*
X114563600Y-110414628D01*
X114520742Y-110328914D01*
X114435028Y-110243200D01*
X114306457Y-110200342D01*
X114220742Y-110200342D01*
X114092171Y-110243200D01*
X114049314Y-110286057D01*
%TO.C,J3*%
X115823914Y-115323200D02*
X115909628Y-115280342D01*
X116038200Y-115280342D01*
X116166771Y-115323200D01*
X116252485Y-115408914D01*
X116295342Y-115494628D01*
X116338200Y-115666057D01*
X116338200Y-115794628D01*
X116295342Y-115966057D01*
X116252485Y-116051771D01*
X116166771Y-116137485D01*
X116038200Y-116180342D01*
X115952485Y-116180342D01*
X115823914Y-116137485D01*
X115781057Y-116094628D01*
X115781057Y-115794628D01*
X115952485Y-115794628D01*
X115395342Y-116180342D02*
X115395342Y-115280342D01*
X114881057Y-116180342D01*
X114881057Y-115280342D01*
X114452485Y-116180342D02*
X114452485Y-115280342D01*
X114238200Y-115280342D01*
X114109628Y-115323200D01*
X114023914Y-115408914D01*
X113981057Y-115494628D01*
X113938200Y-115666057D01*
X113938200Y-115794628D01*
X113981057Y-115966057D01*
X114023914Y-116051771D01*
X114109628Y-116137485D01*
X114238200Y-116180342D01*
X114452485Y-116180342D01*
%TO.C,J5*%
X128572228Y-113640342D02*
X128572228Y-112740342D01*
X128357942Y-112740342D01*
X128229371Y-112783200D01*
X128143657Y-112868914D01*
X128100800Y-112954628D01*
X128057942Y-113126057D01*
X128057942Y-113254628D01*
X128100800Y-113426057D01*
X128143657Y-113511771D01*
X128229371Y-113597485D01*
X128357942Y-113640342D01*
X128572228Y-113640342D01*
X127500800Y-112740342D02*
X127329371Y-112740342D01*
X127243657Y-112783200D01*
X127157942Y-112868914D01*
X127115085Y-113040342D01*
X127115085Y-113340342D01*
X127157942Y-113511771D01*
X127243657Y-113597485D01*
X127329371Y-113640342D01*
X127500800Y-113640342D01*
X127586514Y-113597485D01*
X127672228Y-113511771D01*
X127715085Y-113340342D01*
X127715085Y-113040342D01*
X127672228Y-112868914D01*
X127586514Y-112783200D01*
X127500800Y-112740342D01*
X126729371Y-112740342D02*
X126729371Y-113468914D01*
X126686514Y-113554628D01*
X126643657Y-113597485D01*
X126557942Y-113640342D01*
X126386514Y-113640342D01*
X126300800Y-113597485D01*
X126257942Y-113554628D01*
X126215085Y-113468914D01*
X126215085Y-112740342D01*
X125915085Y-112740342D02*
X125400800Y-112740342D01*
X125657942Y-113640342D02*
X125657942Y-112740342D01*
%TO.C,J4*%
X128225400Y-110251142D02*
X127925400Y-111151142D01*
X127625400Y-110251142D01*
X126811114Y-111065428D02*
X126853971Y-111108285D01*
X126982542Y-111151142D01*
X127068257Y-111151142D01*
X127196828Y-111108285D01*
X127282542Y-111022571D01*
X127325400Y-110936857D01*
X127368257Y-110765428D01*
X127368257Y-110636857D01*
X127325400Y-110465428D01*
X127282542Y-110379714D01*
X127196828Y-110294000D01*
X127068257Y-110251142D01*
X126982542Y-110251142D01*
X126853971Y-110294000D01*
X126811114Y-110336857D01*
X125911114Y-111065428D02*
X125953971Y-111108285D01*
X126082542Y-111151142D01*
X126168257Y-111151142D01*
X126296828Y-111108285D01*
X126382542Y-111022571D01*
X126425400Y-110936857D01*
X126468257Y-110765428D01*
X126468257Y-110636857D01*
X126425400Y-110465428D01*
X126382542Y-110379714D01*
X126296828Y-110294000D01*
X126168257Y-110251142D01*
X126082542Y-110251142D01*
X125953971Y-110294000D01*
X125911114Y-110336857D01*
%TO.C,C1*%
D12*
X121240533Y-108286514D02*
X121278628Y-108324609D01*
X121392914Y-108362704D01*
X121469104Y-108362704D01*
X121583390Y-108324609D01*
X121659580Y-108248419D01*
X121697676Y-108172228D01*
X121735771Y-108019847D01*
X121735771Y-107905561D01*
X121697676Y-107753180D01*
X121659580Y-107676990D01*
X121583390Y-107600800D01*
X121469104Y-107562704D01*
X121392914Y-107562704D01*
X121278628Y-107600800D01*
X121240533Y-107638895D01*
X120478628Y-108362704D02*
X120935771Y-108362704D01*
X120707200Y-108362704D02*
X120707200Y-107562704D01*
X120783390Y-107676990D01*
X120859580Y-107753180D01*
X120935771Y-107791276D01*
%TO.C,J8*%
D11*
X123613028Y-118446937D02*
X123655885Y-118404080D01*
X123698742Y-118275508D01*
X123698742Y-118189794D01*
X123655885Y-118061222D01*
X123570171Y-117975508D01*
X123484457Y-117932651D01*
X123313028Y-117889794D01*
X123184457Y-117889794D01*
X123013028Y-117932651D01*
X122927314Y-117975508D01*
X122841600Y-118061222D01*
X122798742Y-118189794D01*
X122798742Y-118275508D01*
X122841600Y-118404080D01*
X122884457Y-118446937D01*
X122798742Y-119004080D02*
X122798742Y-119175508D01*
X122841600Y-119261222D01*
X122927314Y-119346937D01*
X123098742Y-119389794D01*
X123398742Y-119389794D01*
X123570171Y-119346937D01*
X123655885Y-119261222D01*
X123698742Y-119175508D01*
X123698742Y-119004080D01*
X123655885Y-118918365D01*
X123570171Y-118832651D01*
X123398742Y-118789794D01*
X123098742Y-118789794D01*
X122927314Y-118832651D01*
X122841600Y-118918365D01*
X122798742Y-119004080D01*
X123698742Y-120204080D02*
X123698742Y-119775508D01*
X122798742Y-119775508D01*
%TO.C,J10*%
X115845342Y-118821942D02*
X116145342Y-118393371D01*
X116359628Y-118821942D02*
X116359628Y-117921942D01*
X116016771Y-117921942D01*
X115931057Y-117964800D01*
X115888200Y-118007657D01*
X115845342Y-118093371D01*
X115845342Y-118221942D01*
X115888200Y-118307657D01*
X115931057Y-118350514D01*
X116016771Y-118393371D01*
X116359628Y-118393371D01*
X115288200Y-117921942D02*
X115116771Y-117921942D01*
X115031057Y-117964800D01*
X114945342Y-118050514D01*
X114902485Y-118221942D01*
X114902485Y-118521942D01*
X114945342Y-118693371D01*
X115031057Y-118779085D01*
X115116771Y-118821942D01*
X115288200Y-118821942D01*
X115373914Y-118779085D01*
X115459628Y-118693371D01*
X115502485Y-118521942D01*
X115502485Y-118221942D01*
X115459628Y-118050514D01*
X115373914Y-117964800D01*
X115288200Y-117921942D01*
X114602485Y-117921942D02*
X114388200Y-118821942D01*
X114216771Y-118179085D01*
X114045342Y-118821942D01*
X113831057Y-117921942D01*
%TO.C,J9*%
D13*
X125311897Y-107837233D02*
X125264278Y-107870566D01*
X125216659Y-107970566D01*
X125216659Y-108037233D01*
X125264278Y-108137233D01*
X125359516Y-108203900D01*
X125454754Y-108237233D01*
X125645230Y-108270566D01*
X125788087Y-108270566D01*
X125978563Y-108237233D01*
X126073801Y-108203900D01*
X126169040Y-108137233D01*
X126216659Y-108037233D01*
X126216659Y-107970566D01*
X126169040Y-107870566D01*
X126121420Y-107837233D01*
X126216659Y-107403900D02*
X126216659Y-107270566D01*
X126169040Y-107203900D01*
X126073801Y-107137233D01*
X125883325Y-107103900D01*
X125549992Y-107103900D01*
X125359516Y-107137233D01*
X125264278Y-107203900D01*
X125216659Y-107270566D01*
X125216659Y-107403900D01*
X125264278Y-107470566D01*
X125359516Y-107537233D01*
X125549992Y-107570566D01*
X125883325Y-107570566D01*
X126073801Y-107537233D01*
X126169040Y-107470566D01*
X126216659Y-107403900D01*
X125216659Y-106470566D02*
X125216659Y-106803900D01*
X126216659Y-106803900D01*
%TO.C,D1*%
D12*
X121627066Y-117288533D02*
X120927066Y-117288533D01*
X120927066Y-117455200D01*
X120960400Y-117555200D01*
X121027066Y-117621866D01*
X121093733Y-117655200D01*
X121227066Y-117688533D01*
X121327066Y-117688533D01*
X121460400Y-117655200D01*
X121527066Y-117621866D01*
X121593733Y-117555200D01*
X121627066Y-117455200D01*
X121627066Y-117288533D01*
X121627066Y-118355200D02*
X121627066Y-117955200D01*
X121627066Y-118155200D02*
X120927066Y-118155200D01*
X121027066Y-118088533D01*
X121093733Y-118021866D01*
X121127066Y-117955200D01*
%TO.C,J7*%
D11*
X127808742Y-118720342D02*
X128108742Y-118291771D01*
X128323028Y-118720342D02*
X128323028Y-117820342D01*
X127980171Y-117820342D01*
X127894457Y-117863200D01*
X127851600Y-117906057D01*
X127808742Y-117991771D01*
X127808742Y-118120342D01*
X127851600Y-118206057D01*
X127894457Y-118248914D01*
X127980171Y-118291771D01*
X128323028Y-118291771D01*
X127251600Y-117820342D02*
X127080171Y-117820342D01*
X126994457Y-117863200D01*
X126908742Y-117948914D01*
X126865885Y-118120342D01*
X126865885Y-118420342D01*
X126908742Y-118591771D01*
X126994457Y-118677485D01*
X127080171Y-118720342D01*
X127251600Y-118720342D01*
X127337314Y-118677485D01*
X127423028Y-118591771D01*
X127465885Y-118420342D01*
X127465885Y-118120342D01*
X127423028Y-117948914D01*
X127337314Y-117863200D01*
X127251600Y-117820342D01*
X126565885Y-117820342D02*
X126351600Y-118720342D01*
X126180171Y-118077485D01*
X126008742Y-118720342D01*
X125794457Y-117820342D01*
%TO.C,J2*%
X116135828Y-113589542D02*
X116135828Y-112689542D01*
X115921542Y-112689542D01*
X115792971Y-112732400D01*
X115707257Y-112818114D01*
X115664400Y-112903828D01*
X115621542Y-113075257D01*
X115621542Y-113203828D01*
X115664400Y-113375257D01*
X115707257Y-113460971D01*
X115792971Y-113546685D01*
X115921542Y-113589542D01*
X116135828Y-113589542D01*
X115235828Y-113589542D02*
X115235828Y-112689542D01*
X114807257Y-113589542D02*
X114807257Y-112689542D01*
X114292971Y-113589542D01*
X114292971Y-112689542D01*
%TD*%
M02*
