%TF.GenerationSoftware,KiCad,Pcbnew,5.1.9*%
%TF.CreationDate,2021-04-13T03:12:43+02:00*%
%TF.ProjectId,_autosave-keycap,5f617574-6f73-4617-9665-2d6b65796361,rev?*%
%TF.SameCoordinates,Original*%
%TF.FileFunction,Legend,Top*%
%TF.FilePolarity,Positive*%
%FSLAX46Y46*%
G04 Gerber Fmt 4.6, Leading zero omitted, Abs format (unit mm)*
G04 Created by KiCad (PCBNEW 5.1.9) date 2021-04-13 03:12:43*
%MOMM*%
%LPD*%
G01*
G04 APERTURE LIST*
%ADD10C,0.160000*%
%ADD11C,0.120000*%
G04 APERTURE END LIST*
D10*
X127206525Y-106754920D02*
X127206525Y-106988253D01*
X126735097Y-107088253D02*
X126735097Y-106754920D01*
X127635097Y-106754920D01*
X127635097Y-107088253D01*
X126992240Y-107354920D02*
X126992240Y-107688253D01*
X126735097Y-107288253D02*
X127635097Y-107521586D01*
X126735097Y-107754920D01*
X127635097Y-107921586D02*
X127635097Y-108388253D01*
X126735097Y-108088253D01*
X126735097Y-108654920D02*
X127635097Y-108654920D01*
X126735097Y-109054920D02*
X127249382Y-108754920D01*
X127635097Y-109054920D02*
X127120811Y-108654920D01*
X126820811Y-109754920D02*
X126777954Y-109721586D01*
X126735097Y-109621586D01*
X126735097Y-109554920D01*
X126777954Y-109454920D01*
X126863668Y-109388253D01*
X126949382Y-109354920D01*
X127120811Y-109321586D01*
X127249382Y-109321586D01*
X127420811Y-109354920D01*
X127506525Y-109388253D01*
X127592240Y-109454920D01*
X127635097Y-109554920D01*
X127635097Y-109621586D01*
X127592240Y-109721586D01*
X127549382Y-109754920D01*
X127635097Y-109988253D02*
X126735097Y-110454920D01*
X127635097Y-110454920D02*
X126735097Y-109988253D01*
X126735097Y-112354920D02*
X126735097Y-112321586D01*
X126777954Y-112254920D01*
X126906525Y-112154920D01*
X127163668Y-111988253D01*
X127292240Y-111921586D01*
X127420811Y-111888253D01*
X127506525Y-111888253D01*
X127592240Y-111921586D01*
X127635097Y-111988253D01*
X127635097Y-112021586D01*
X127592240Y-112088253D01*
X127506525Y-112121586D01*
X127463668Y-112121586D01*
X127377954Y-112088253D01*
X127335097Y-112054920D01*
X127163668Y-111854920D01*
X127120811Y-111821586D01*
X127035097Y-111788253D01*
X126906525Y-111788253D01*
X126820811Y-111821586D01*
X126777954Y-111854920D01*
X126735097Y-111921586D01*
X126735097Y-112021586D01*
X126777954Y-112088253D01*
X126820811Y-112121586D01*
X126992240Y-112221586D01*
X127120811Y-112254920D01*
X127206525Y-112254920D01*
X127206525Y-113188253D02*
X127206525Y-113421586D01*
X126735097Y-113521586D02*
X126735097Y-113188253D01*
X127635097Y-113188253D01*
X127635097Y-113521586D01*
X126992240Y-113788253D02*
X126992240Y-114121586D01*
X126735097Y-113721586D02*
X127635097Y-113954920D01*
X126735097Y-114188253D01*
X127635097Y-114354920D02*
X127635097Y-114821586D01*
X126735097Y-114521586D01*
X126735097Y-115088253D02*
X127635097Y-115088253D01*
X126735097Y-115488253D02*
X127249382Y-115188253D01*
X127635097Y-115488253D02*
X127120811Y-115088253D01*
X126820811Y-116188253D02*
X126777954Y-116154920D01*
X126735097Y-116054920D01*
X126735097Y-115988253D01*
X126777954Y-115888253D01*
X126863668Y-115821586D01*
X126949382Y-115788253D01*
X127120811Y-115754920D01*
X127249382Y-115754920D01*
X127420811Y-115788253D01*
X127506525Y-115821586D01*
X127592240Y-115888253D01*
X127635097Y-115988253D01*
X127635097Y-116054920D01*
X127592240Y-116154920D01*
X127549382Y-116188253D01*
X127163668Y-116621586D02*
X126735097Y-116621586D01*
X127635097Y-116388253D02*
X127163668Y-116621586D01*
X127635097Y-116854920D01*
D11*
%TO.C,SW1*%
X128104900Y-120243600D02*
X114134900Y-120243600D01*
X114134900Y-120243600D02*
X114134900Y-106273600D01*
X114134900Y-106273600D02*
X128104900Y-106273600D01*
X128104900Y-106273600D02*
X128104900Y-120243600D01*
%TO.C,REF\u002A\u002A*%
X122958000Y-108972200D02*
X122958000Y-106972200D01*
X122958000Y-106972200D02*
X118958000Y-106972200D01*
X118958000Y-106972200D02*
X118958000Y-108772200D01*
X118958000Y-108772200D02*
X119158000Y-108972200D01*
D10*
X119071466Y-108060285D02*
X119171466Y-108103142D01*
X119338133Y-108103142D01*
X119404800Y-108060285D01*
X119438133Y-108017428D01*
X119471466Y-107931714D01*
X119471466Y-107846000D01*
X119438133Y-107760285D01*
X119404800Y-107717428D01*
X119338133Y-107674571D01*
X119204800Y-107631714D01*
X119138133Y-107588857D01*
X119104800Y-107546000D01*
X119071466Y-107460285D01*
X119071466Y-107374571D01*
X119104800Y-107288857D01*
X119138133Y-107246000D01*
X119204800Y-107203142D01*
X119371466Y-107203142D01*
X119471466Y-107246000D01*
X119771466Y-108103142D02*
X119771466Y-107203142D01*
X120171466Y-108103142D02*
X119871466Y-107588857D01*
X120171466Y-107203142D02*
X119771466Y-107717428D01*
X120771466Y-107203142D02*
X120638133Y-107203142D01*
X120571466Y-107246000D01*
X120538133Y-107288857D01*
X120471466Y-107417428D01*
X120438133Y-107588857D01*
X120438133Y-107931714D01*
X120471466Y-108017428D01*
X120504800Y-108060285D01*
X120571466Y-108103142D01*
X120704800Y-108103142D01*
X120771466Y-108060285D01*
X120804800Y-108017428D01*
X120838133Y-107931714D01*
X120838133Y-107717428D01*
X120804800Y-107631714D01*
X120771466Y-107588857D01*
X120704800Y-107546000D01*
X120571466Y-107546000D01*
X120504800Y-107588857D01*
X120471466Y-107631714D01*
X120438133Y-107717428D01*
X121238133Y-107588857D02*
X121171466Y-107546000D01*
X121138133Y-107503142D01*
X121104800Y-107417428D01*
X121104800Y-107374571D01*
X121138133Y-107288857D01*
X121171466Y-107246000D01*
X121238133Y-107203142D01*
X121371466Y-107203142D01*
X121438133Y-107246000D01*
X121471466Y-107288857D01*
X121504800Y-107374571D01*
X121504800Y-107417428D01*
X121471466Y-107503142D01*
X121438133Y-107546000D01*
X121371466Y-107588857D01*
X121238133Y-107588857D01*
X121171466Y-107631714D01*
X121138133Y-107674571D01*
X121104800Y-107760285D01*
X121104800Y-107931714D01*
X121138133Y-108017428D01*
X121171466Y-108060285D01*
X121238133Y-108103142D01*
X121371466Y-108103142D01*
X121438133Y-108060285D01*
X121471466Y-108017428D01*
X121504800Y-107931714D01*
X121504800Y-107760285D01*
X121471466Y-107674571D01*
X121438133Y-107631714D01*
X121371466Y-107588857D01*
X122171466Y-108103142D02*
X121771466Y-108103142D01*
X121971466Y-108103142D02*
X121971466Y-107203142D01*
X121904800Y-107331714D01*
X121838133Y-107417428D01*
X121771466Y-107460285D01*
X122438133Y-107288857D02*
X122471466Y-107246000D01*
X122538133Y-107203142D01*
X122704800Y-107203142D01*
X122771466Y-107246000D01*
X122804800Y-107288857D01*
X122838133Y-107374571D01*
X122838133Y-107460285D01*
X122804800Y-107588857D01*
X122404800Y-108103142D01*
X122838133Y-108103142D01*
%TD*%
M02*
