%TF.GenerationSoftware,KiCad,Pcbnew,5.1.9*%
%TF.CreationDate,2021-04-13T03:12:43+02:00*%
%TF.ProjectId,_autosave-keycap,5f617574-6f73-4617-9665-2d6b65796361,rev?*%
%TF.SameCoordinates,Original*%
%TF.FileFunction,Copper,L1,Top*%
%TF.FilePolarity,Positive*%
%FSLAX46Y46*%
G04 Gerber Fmt 4.6, Leading zero omitted, Abs format (unit mm)*
G04 Created by KiCad (PCBNEW 5.1.9) date 2021-04-13 03:12:43*
%MOMM*%
%LPD*%
G01*
G04 APERTURE LIST*
%TA.AperFunction,ComponentPad*%
%ADD10C,2.200000*%
%TD*%
%TA.AperFunction,SMDPad,CuDef*%
%ADD11R,0.450000X0.800000*%
%TD*%
%TA.AperFunction,SMDPad,CuDef*%
%ADD12R,0.600000X0.800000*%
%TD*%
%TA.AperFunction,SMDPad,CuDef*%
%ADD13R,0.350000X0.800000*%
%TD*%
%TA.AperFunction,SMDPad,CuDef*%
%ADD14R,0.500000X0.800000*%
%TD*%
%TA.AperFunction,ViaPad*%
%ADD15C,0.800000*%
%TD*%
%TA.AperFunction,Conductor*%
%ADD16C,0.250000*%
%TD*%
%TA.AperFunction,Conductor*%
%ADD17C,0.500000*%
%TD*%
%TA.AperFunction,Conductor*%
%ADD18C,0.240000*%
%TD*%
%TA.AperFunction,Conductor*%
%ADD19C,0.254000*%
%TD*%
%TA.AperFunction,Conductor*%
%ADD20C,0.100000*%
%TD*%
G04 APERTURE END LIST*
D10*
%TO.P,SW1,1*%
%TO.N,N/C*%
X118579900Y-118338600D03*
%TO.P,SW1,2*%
X124929900Y-115798600D03*
%TD*%
D11*
%TO.P,REF\u002A\u002A,1*%
%TO.N,/DIN*%
X119723000Y-108952200D03*
D12*
%TO.P,REF\u002A\u002A,2*%
%TO.N,/VCC*%
X120698000Y-108952200D03*
D13*
%TO.P,REF\u002A\u002A,3*%
%TO.N,/DOUT*%
X121573000Y-108952200D03*
D14*
%TO.P,REF\u002A\u002A,4*%
%TO.N,GND*%
X122398000Y-108952200D03*
%TD*%
D15*
%TO.N,*%
X125628400Y-107543600D03*
X127050800Y-118414800D03*
X122859800Y-120091200D03*
%TO.N,/VCC*%
X120698000Y-109953800D03*
%TO.N,GND*%
X122986800Y-116890800D03*
X126949200Y-113233200D03*
X115468400Y-108153200D03*
X123896120Y-109717840D03*
X116347240Y-113197640D03*
X118988840Y-116342160D03*
%TO.N,/DIN*%
X118910100Y-110662720D03*
%TO.N,/DOUT*%
X125183900Y-113931700D03*
%TD*%
D16*
%TO.N,*%
X118579900Y-118389400D02*
X117602000Y-117411500D01*
X117602000Y-109863198D02*
X119921598Y-107543600D01*
X117602000Y-117411500D02*
X117602000Y-109863198D01*
X123939300Y-107543600D02*
X123939300Y-107543600D01*
X119921598Y-107543600D02*
X123939300Y-107543600D01*
X123939300Y-107543600D02*
X125628400Y-107543600D01*
X125628400Y-107543600D02*
X125628400Y-107543600D01*
X127050800Y-118414800D02*
X127050800Y-118414800D01*
X127050800Y-118719600D02*
X127050800Y-118414800D01*
X125679200Y-120091200D02*
X127050800Y-118719600D01*
X122783600Y-120091200D02*
X125679200Y-120091200D01*
%TO.N,/VCC*%
X120698000Y-109953800D02*
X120698000Y-109953800D01*
D17*
X120698000Y-108952200D02*
X120698000Y-109953800D01*
D16*
%TO.N,GND*%
X122398000Y-108952200D02*
X122398000Y-109202700D01*
X118912640Y-116342160D02*
X118988840Y-116342160D01*
X122398000Y-108952200D02*
X122398000Y-109103640D01*
X122438160Y-116342160D02*
X122229880Y-116342160D01*
X122986800Y-116890800D02*
X122438160Y-116342160D01*
X118988840Y-116342160D02*
X122229880Y-116342160D01*
X122398000Y-108952200D02*
X122398000Y-109357640D01*
D18*
X122398000Y-109357640D02*
X123169680Y-110129320D01*
D16*
X123484640Y-110129320D02*
X123896120Y-109717840D01*
X123169680Y-110129320D02*
X123484640Y-110129320D01*
%TO.N,/DIN*%
X119723000Y-109849820D02*
X118910100Y-110662720D01*
X119723000Y-108952200D02*
X119723000Y-109849820D01*
%TO.N,/DOUT*%
X121573000Y-108952200D02*
X121573000Y-109362202D01*
X121573000Y-109602200D02*
X121573000Y-108952200D01*
X125183900Y-113213100D02*
X121573000Y-109602200D01*
X125183900Y-113931700D02*
X125183900Y-113213100D01*
%TD*%
D19*
%TO.N,GND*%
X128199343Y-106257417D02*
X128192398Y-120361158D01*
X126484251Y-120360950D01*
X127493497Y-119351705D01*
X127541056Y-119332005D01*
X127710574Y-119218737D01*
X127854737Y-119074574D01*
X127968005Y-118905056D01*
X128046026Y-118716698D01*
X128085800Y-118516739D01*
X128085800Y-118312861D01*
X128046026Y-118112902D01*
X127968005Y-117924544D01*
X127854737Y-117755026D01*
X127710574Y-117610863D01*
X127541056Y-117497595D01*
X127352698Y-117419574D01*
X127152739Y-117379800D01*
X126948861Y-117379800D01*
X126748902Y-117419574D01*
X126560544Y-117497595D01*
X126391026Y-117610863D01*
X126246863Y-117755026D01*
X126133595Y-117924544D01*
X126055574Y-118112902D01*
X126015800Y-118312861D01*
X126015800Y-118516739D01*
X126042853Y-118652745D01*
X125364399Y-119331200D01*
X123563511Y-119331200D01*
X123519574Y-119287263D01*
X123350056Y-119173995D01*
X123161698Y-119095974D01*
X122961739Y-119056200D01*
X122757861Y-119056200D01*
X122557902Y-119095974D01*
X122369544Y-119173995D01*
X122200026Y-119287263D01*
X122055863Y-119431426D01*
X121942595Y-119600944D01*
X121864574Y-119789302D01*
X121824800Y-119989261D01*
X121824800Y-120193139D01*
X121858067Y-120360387D01*
X114096140Y-120359443D01*
X114096140Y-109863198D01*
X116838324Y-109863198D01*
X116842001Y-109900530D01*
X116842000Y-117374178D01*
X116838324Y-117411500D01*
X116842000Y-117448822D01*
X116842000Y-117448832D01*
X116852997Y-117560485D01*
X116896454Y-117703746D01*
X116935025Y-117775906D01*
X116911575Y-117832519D01*
X116844900Y-118167717D01*
X116844900Y-118509483D01*
X116911575Y-118844681D01*
X117042363Y-119160431D01*
X117232237Y-119444598D01*
X117473902Y-119686263D01*
X117758069Y-119876137D01*
X118073819Y-120006925D01*
X118409017Y-120073600D01*
X118750783Y-120073600D01*
X119085981Y-120006925D01*
X119401731Y-119876137D01*
X119685898Y-119686263D01*
X119927563Y-119444598D01*
X120117437Y-119160431D01*
X120248225Y-118844681D01*
X120314900Y-118509483D01*
X120314900Y-118167717D01*
X120248225Y-117832519D01*
X120117437Y-117516769D01*
X119927563Y-117232602D01*
X119685898Y-116990937D01*
X119401731Y-116801063D01*
X119085981Y-116670275D01*
X118750783Y-116603600D01*
X118409017Y-116603600D01*
X118362000Y-116612952D01*
X118362000Y-111541275D01*
X118419844Y-111579925D01*
X118608202Y-111657946D01*
X118808161Y-111697720D01*
X118993759Y-111697720D01*
X118784793Y-112010459D01*
X118586161Y-112489999D01*
X118484900Y-112999075D01*
X118484900Y-113518125D01*
X118586161Y-114027201D01*
X118784793Y-114506741D01*
X119073162Y-114938315D01*
X119440185Y-115305338D01*
X119871759Y-115593707D01*
X120351299Y-115792339D01*
X120860375Y-115893600D01*
X121379425Y-115893600D01*
X121888501Y-115792339D01*
X122368041Y-115593707D01*
X122799615Y-115305338D01*
X123166638Y-114938315D01*
X123455007Y-114506741D01*
X123653639Y-114027201D01*
X123754900Y-113518125D01*
X123754900Y-112999075D01*
X123720095Y-112824097D01*
X124295032Y-113399034D01*
X124266695Y-113441444D01*
X124188674Y-113629802D01*
X124148900Y-113829761D01*
X124148900Y-114033639D01*
X124187586Y-114228126D01*
X124108069Y-114261063D01*
X123823902Y-114450937D01*
X123582237Y-114692602D01*
X123392363Y-114976769D01*
X123261575Y-115292519D01*
X123194900Y-115627717D01*
X123194900Y-115969483D01*
X123261575Y-116304681D01*
X123392363Y-116620431D01*
X123582237Y-116904598D01*
X123823902Y-117146263D01*
X124108069Y-117336137D01*
X124423819Y-117466925D01*
X124759017Y-117533600D01*
X125100783Y-117533600D01*
X125435981Y-117466925D01*
X125751731Y-117336137D01*
X126035898Y-117146263D01*
X126277563Y-116904598D01*
X126467437Y-116620431D01*
X126598225Y-116304681D01*
X126664900Y-115969483D01*
X126664900Y-115627717D01*
X126598225Y-115292519D01*
X126467437Y-114976769D01*
X126277563Y-114692602D01*
X126063379Y-114478418D01*
X126101105Y-114421956D01*
X126179126Y-114233598D01*
X126218900Y-114033639D01*
X126218900Y-113829761D01*
X126179126Y-113629802D01*
X126101105Y-113441444D01*
X125987837Y-113271926D01*
X125945912Y-113230001D01*
X125947576Y-113213100D01*
X125943900Y-113175775D01*
X125943900Y-113175767D01*
X125932903Y-113064114D01*
X125889446Y-112920853D01*
X125818874Y-112788824D01*
X125723901Y-112673099D01*
X125694903Y-112649301D01*
X122954157Y-109908556D01*
X123014143Y-109874766D01*
X123109055Y-109793294D01*
X123186249Y-109694872D01*
X123242759Y-109583280D01*
X123276412Y-109462808D01*
X123285916Y-109338086D01*
X123283000Y-109237950D01*
X123124250Y-109079200D01*
X122521000Y-109079200D01*
X122521000Y-109099200D01*
X122386072Y-109099200D01*
X122386072Y-108805200D01*
X122521000Y-108805200D01*
X122521000Y-108825200D01*
X123124250Y-108825200D01*
X123283000Y-108666450D01*
X123285916Y-108566314D01*
X123276412Y-108441592D01*
X123242759Y-108321120D01*
X123233887Y-108303600D01*
X124924689Y-108303600D01*
X124968626Y-108347537D01*
X125138144Y-108460805D01*
X125326502Y-108538826D01*
X125526461Y-108578600D01*
X125730339Y-108578600D01*
X125930298Y-108538826D01*
X126118656Y-108460805D01*
X126288174Y-108347537D01*
X126432337Y-108203374D01*
X126545605Y-108033856D01*
X126623626Y-107845498D01*
X126663400Y-107645539D01*
X126663400Y-107441661D01*
X126623626Y-107241702D01*
X126545605Y-107053344D01*
X126432337Y-106883826D01*
X126288174Y-106739663D01*
X126118656Y-106626395D01*
X125930298Y-106548374D01*
X125730339Y-106508600D01*
X125526461Y-106508600D01*
X125326502Y-106548374D01*
X125138144Y-106626395D01*
X124968626Y-106739663D01*
X124924689Y-106783600D01*
X119958921Y-106783600D01*
X119921598Y-106779924D01*
X119884275Y-106783600D01*
X119884265Y-106783600D01*
X119772612Y-106794597D01*
X119629351Y-106838054D01*
X119497321Y-106908626D01*
X119413681Y-106977268D01*
X119381597Y-107003599D01*
X119357799Y-107032597D01*
X117090998Y-109299399D01*
X117062000Y-109323197D01*
X117038202Y-109352195D01*
X117038201Y-109352196D01*
X116967026Y-109438922D01*
X116896454Y-109570952D01*
X116866180Y-109670756D01*
X116852998Y-109714212D01*
X116849356Y-109751186D01*
X116838324Y-109863198D01*
X114096140Y-109863198D01*
X114096140Y-106254502D01*
X128199343Y-106257417D01*
%TA.AperFunction,Conductor*%
D20*
G36*
X128199343Y-106257417D02*
G01*
X128192398Y-120361158D01*
X126484251Y-120360950D01*
X127493497Y-119351705D01*
X127541056Y-119332005D01*
X127710574Y-119218737D01*
X127854737Y-119074574D01*
X127968005Y-118905056D01*
X128046026Y-118716698D01*
X128085800Y-118516739D01*
X128085800Y-118312861D01*
X128046026Y-118112902D01*
X127968005Y-117924544D01*
X127854737Y-117755026D01*
X127710574Y-117610863D01*
X127541056Y-117497595D01*
X127352698Y-117419574D01*
X127152739Y-117379800D01*
X126948861Y-117379800D01*
X126748902Y-117419574D01*
X126560544Y-117497595D01*
X126391026Y-117610863D01*
X126246863Y-117755026D01*
X126133595Y-117924544D01*
X126055574Y-118112902D01*
X126015800Y-118312861D01*
X126015800Y-118516739D01*
X126042853Y-118652745D01*
X125364399Y-119331200D01*
X123563511Y-119331200D01*
X123519574Y-119287263D01*
X123350056Y-119173995D01*
X123161698Y-119095974D01*
X122961739Y-119056200D01*
X122757861Y-119056200D01*
X122557902Y-119095974D01*
X122369544Y-119173995D01*
X122200026Y-119287263D01*
X122055863Y-119431426D01*
X121942595Y-119600944D01*
X121864574Y-119789302D01*
X121824800Y-119989261D01*
X121824800Y-120193139D01*
X121858067Y-120360387D01*
X114096140Y-120359443D01*
X114096140Y-109863198D01*
X116838324Y-109863198D01*
X116842001Y-109900530D01*
X116842000Y-117374178D01*
X116838324Y-117411500D01*
X116842000Y-117448822D01*
X116842000Y-117448832D01*
X116852997Y-117560485D01*
X116896454Y-117703746D01*
X116935025Y-117775906D01*
X116911575Y-117832519D01*
X116844900Y-118167717D01*
X116844900Y-118509483D01*
X116911575Y-118844681D01*
X117042363Y-119160431D01*
X117232237Y-119444598D01*
X117473902Y-119686263D01*
X117758069Y-119876137D01*
X118073819Y-120006925D01*
X118409017Y-120073600D01*
X118750783Y-120073600D01*
X119085981Y-120006925D01*
X119401731Y-119876137D01*
X119685898Y-119686263D01*
X119927563Y-119444598D01*
X120117437Y-119160431D01*
X120248225Y-118844681D01*
X120314900Y-118509483D01*
X120314900Y-118167717D01*
X120248225Y-117832519D01*
X120117437Y-117516769D01*
X119927563Y-117232602D01*
X119685898Y-116990937D01*
X119401731Y-116801063D01*
X119085981Y-116670275D01*
X118750783Y-116603600D01*
X118409017Y-116603600D01*
X118362000Y-116612952D01*
X118362000Y-111541275D01*
X118419844Y-111579925D01*
X118608202Y-111657946D01*
X118808161Y-111697720D01*
X118993759Y-111697720D01*
X118784793Y-112010459D01*
X118586161Y-112489999D01*
X118484900Y-112999075D01*
X118484900Y-113518125D01*
X118586161Y-114027201D01*
X118784793Y-114506741D01*
X119073162Y-114938315D01*
X119440185Y-115305338D01*
X119871759Y-115593707D01*
X120351299Y-115792339D01*
X120860375Y-115893600D01*
X121379425Y-115893600D01*
X121888501Y-115792339D01*
X122368041Y-115593707D01*
X122799615Y-115305338D01*
X123166638Y-114938315D01*
X123455007Y-114506741D01*
X123653639Y-114027201D01*
X123754900Y-113518125D01*
X123754900Y-112999075D01*
X123720095Y-112824097D01*
X124295032Y-113399034D01*
X124266695Y-113441444D01*
X124188674Y-113629802D01*
X124148900Y-113829761D01*
X124148900Y-114033639D01*
X124187586Y-114228126D01*
X124108069Y-114261063D01*
X123823902Y-114450937D01*
X123582237Y-114692602D01*
X123392363Y-114976769D01*
X123261575Y-115292519D01*
X123194900Y-115627717D01*
X123194900Y-115969483D01*
X123261575Y-116304681D01*
X123392363Y-116620431D01*
X123582237Y-116904598D01*
X123823902Y-117146263D01*
X124108069Y-117336137D01*
X124423819Y-117466925D01*
X124759017Y-117533600D01*
X125100783Y-117533600D01*
X125435981Y-117466925D01*
X125751731Y-117336137D01*
X126035898Y-117146263D01*
X126277563Y-116904598D01*
X126467437Y-116620431D01*
X126598225Y-116304681D01*
X126664900Y-115969483D01*
X126664900Y-115627717D01*
X126598225Y-115292519D01*
X126467437Y-114976769D01*
X126277563Y-114692602D01*
X126063379Y-114478418D01*
X126101105Y-114421956D01*
X126179126Y-114233598D01*
X126218900Y-114033639D01*
X126218900Y-113829761D01*
X126179126Y-113629802D01*
X126101105Y-113441444D01*
X125987837Y-113271926D01*
X125945912Y-113230001D01*
X125947576Y-113213100D01*
X125943900Y-113175775D01*
X125943900Y-113175767D01*
X125932903Y-113064114D01*
X125889446Y-112920853D01*
X125818874Y-112788824D01*
X125723901Y-112673099D01*
X125694903Y-112649301D01*
X122954157Y-109908556D01*
X123014143Y-109874766D01*
X123109055Y-109793294D01*
X123186249Y-109694872D01*
X123242759Y-109583280D01*
X123276412Y-109462808D01*
X123285916Y-109338086D01*
X123283000Y-109237950D01*
X123124250Y-109079200D01*
X122521000Y-109079200D01*
X122521000Y-109099200D01*
X122386072Y-109099200D01*
X122386072Y-108805200D01*
X122521000Y-108805200D01*
X122521000Y-108825200D01*
X123124250Y-108825200D01*
X123283000Y-108666450D01*
X123285916Y-108566314D01*
X123276412Y-108441592D01*
X123242759Y-108321120D01*
X123233887Y-108303600D01*
X124924689Y-108303600D01*
X124968626Y-108347537D01*
X125138144Y-108460805D01*
X125326502Y-108538826D01*
X125526461Y-108578600D01*
X125730339Y-108578600D01*
X125930298Y-108538826D01*
X126118656Y-108460805D01*
X126288174Y-108347537D01*
X126432337Y-108203374D01*
X126545605Y-108033856D01*
X126623626Y-107845498D01*
X126663400Y-107645539D01*
X126663400Y-107441661D01*
X126623626Y-107241702D01*
X126545605Y-107053344D01*
X126432337Y-106883826D01*
X126288174Y-106739663D01*
X126118656Y-106626395D01*
X125930298Y-106548374D01*
X125730339Y-106508600D01*
X125526461Y-106508600D01*
X125326502Y-106548374D01*
X125138144Y-106626395D01*
X124968626Y-106739663D01*
X124924689Y-106783600D01*
X119958921Y-106783600D01*
X119921598Y-106779924D01*
X119884275Y-106783600D01*
X119884265Y-106783600D01*
X119772612Y-106794597D01*
X119629351Y-106838054D01*
X119497321Y-106908626D01*
X119413681Y-106977268D01*
X119381597Y-107003599D01*
X119357799Y-107032597D01*
X117090998Y-109299399D01*
X117062000Y-109323197D01*
X117038202Y-109352195D01*
X117038201Y-109352196D01*
X116967026Y-109438922D01*
X116896454Y-109570952D01*
X116866180Y-109670756D01*
X116852998Y-109714212D01*
X116849356Y-109751186D01*
X116838324Y-109863198D01*
X114096140Y-109863198D01*
X114096140Y-106254502D01*
X128199343Y-106257417D01*
G37*
%TD.AperFunction*%
%TD*%
M02*
