%TF.GenerationSoftware,KiCad,Pcbnew,5.1.9*%
%TF.CreationDate,2021-04-13T03:12:43+02:00*%
%TF.ProjectId,_autosave-keycap,5f617574-6f73-4617-9665-2d6b65796361,rev?*%
%TF.SameCoordinates,Original*%
%TF.FileFunction,Soldermask,Bot*%
%TF.FilePolarity,Negative*%
%FSLAX46Y46*%
G04 Gerber Fmt 4.6, Leading zero omitted, Abs format (unit mm)*
G04 Created by KiCad (PCBNEW 5.1.9) date 2021-04-13 03:12:43*
%MOMM*%
%LPD*%
G01*
G04 APERTURE LIST*
%ADD10C,2.200000*%
%ADD11C,4.000000*%
%ADD12R,1.000000X1.000000*%
G04 APERTURE END LIST*
D10*
%TO.C,SW1*%
X118579900Y-118338600D03*
X124929900Y-115798600D03*
D11*
X121119900Y-113258600D03*
%TD*%
%TO.C,J6*%
G36*
G01*
X126275400Y-116505100D02*
X127775400Y-116505100D01*
G75*
G02*
X128025400Y-116755100I0J-250000D01*
G01*
X128025400Y-117255100D01*
G75*
G02*
X127775400Y-117505100I-250000J0D01*
G01*
X126275400Y-117505100D01*
G75*
G02*
X126025400Y-117255100I0J250000D01*
G01*
X126025400Y-116755100D01*
G75*
G02*
X126275400Y-116505100I250000J0D01*
G01*
G37*
%TD*%
%TO.C,J1*%
G36*
G01*
X115913600Y-112425100D02*
X114413600Y-112425100D01*
G75*
G02*
X114163600Y-112175100I0J250000D01*
G01*
X114163600Y-111675100D01*
G75*
G02*
X114413600Y-111425100I250000J0D01*
G01*
X115913600Y-111425100D01*
G75*
G02*
X116163600Y-111675100I0J-250000D01*
G01*
X116163600Y-112175100D01*
G75*
G02*
X115913600Y-112425100I-250000J0D01*
G01*
G37*
%TD*%
%TO.C,J3*%
G36*
G01*
X114367880Y-116505100D02*
X115867880Y-116505100D01*
G75*
G02*
X116117880Y-116755100I0J-250000D01*
G01*
X116117880Y-117255100D01*
G75*
G02*
X115867880Y-117505100I-250000J0D01*
G01*
X114367880Y-117505100D01*
G75*
G02*
X114117880Y-117255100I0J250000D01*
G01*
X114117880Y-116755100D01*
G75*
G02*
X114367880Y-116505100I250000J0D01*
G01*
G37*
%TD*%
%TO.C,J5*%
G36*
G01*
X126275400Y-113965100D02*
X127775400Y-113965100D01*
G75*
G02*
X128025400Y-114215100I0J-250000D01*
G01*
X128025400Y-114715100D01*
G75*
G02*
X127775400Y-114965100I-250000J0D01*
G01*
X126275400Y-114965100D01*
G75*
G02*
X126025400Y-114715100I0J250000D01*
G01*
X126025400Y-114215100D01*
G75*
G02*
X126275400Y-113965100I250000J0D01*
G01*
G37*
%TD*%
%TO.C,J4*%
G36*
G01*
X126275400Y-111425100D02*
X127775400Y-111425100D01*
G75*
G02*
X128025400Y-111675100I0J-250000D01*
G01*
X128025400Y-112175100D01*
G75*
G02*
X127775400Y-112425100I-250000J0D01*
G01*
X126275400Y-112425100D01*
G75*
G02*
X126025400Y-112175100I0J250000D01*
G01*
X126025400Y-111675100D01*
G75*
G02*
X126275400Y-111425100I250000J0D01*
G01*
G37*
%TD*%
%TO.C,C1*%
G36*
G01*
X119031800Y-108846381D02*
X119031800Y-107546379D01*
G75*
G02*
X119281799Y-107296380I249999J0D01*
G01*
X119931801Y-107296380D01*
G75*
G02*
X120181800Y-107546379I0J-249999D01*
G01*
X120181800Y-108846381D01*
G75*
G02*
X119931801Y-109096380I-249999J0D01*
G01*
X119281799Y-109096380D01*
G75*
G02*
X119031800Y-108846381I0J249999D01*
G01*
G37*
G36*
G01*
X121981800Y-108846381D02*
X121981800Y-107546379D01*
G75*
G02*
X122231799Y-107296380I249999J0D01*
G01*
X122881801Y-107296380D01*
G75*
G02*
X123131800Y-107546379I0J-249999D01*
G01*
X123131800Y-108846381D01*
G75*
G02*
X122881801Y-109096380I-249999J0D01*
G01*
X122231799Y-109096380D01*
G75*
G02*
X121981800Y-108846381I0J249999D01*
G01*
G37*
%TD*%
%TO.C,J8*%
G36*
G01*
X124960000Y-118304880D02*
X124960000Y-119804880D01*
G75*
G02*
X124710000Y-120054880I-250000J0D01*
G01*
X124210000Y-120054880D01*
G75*
G02*
X123960000Y-119804880I0J250000D01*
G01*
X123960000Y-118304880D01*
G75*
G02*
X124210000Y-118054880I250000J0D01*
G01*
X124710000Y-118054880D01*
G75*
G02*
X124960000Y-118304880I0J-250000D01*
G01*
G37*
%TD*%
%TO.C,J10*%
G36*
G01*
X115875500Y-120121300D02*
X114375500Y-120121300D01*
G75*
G02*
X114125500Y-119871300I0J250000D01*
G01*
X114125500Y-119371300D01*
G75*
G02*
X114375500Y-119121300I250000J0D01*
G01*
X115875500Y-119121300D01*
G75*
G02*
X116125500Y-119371300I0J-250000D01*
G01*
X116125500Y-119871300D01*
G75*
G02*
X115875500Y-120121300I-250000J0D01*
G01*
G37*
%TD*%
%TO.C,J9*%
G36*
G01*
X123904120Y-108202160D02*
X123904120Y-106702160D01*
G75*
G02*
X124154120Y-106452160I250000J0D01*
G01*
X124654120Y-106452160D01*
G75*
G02*
X124904120Y-106702160I0J-250000D01*
G01*
X124904120Y-108202160D01*
G75*
G02*
X124654120Y-108452160I-250000J0D01*
G01*
X124154120Y-108452160D01*
G75*
G02*
X123904120Y-108202160I0J250000D01*
G01*
G37*
%TD*%
D12*
%TO.C,D1*%
X121297700Y-119042500D03*
X121297700Y-116542500D03*
%TD*%
%TO.C,J7*%
G36*
G01*
X126275400Y-119045100D02*
X127775400Y-119045100D01*
G75*
G02*
X128025400Y-119295100I0J-250000D01*
G01*
X128025400Y-119795100D01*
G75*
G02*
X127775400Y-120045100I-250000J0D01*
G01*
X126275400Y-120045100D01*
G75*
G02*
X126025400Y-119795100I0J250000D01*
G01*
X126025400Y-119295100D01*
G75*
G02*
X126275400Y-119045100I250000J0D01*
G01*
G37*
%TD*%
%TO.C,J2*%
G36*
G01*
X114474560Y-113949860D02*
X115974560Y-113949860D01*
G75*
G02*
X116224560Y-114199860I0J-250000D01*
G01*
X116224560Y-114699860D01*
G75*
G02*
X115974560Y-114949860I-250000J0D01*
G01*
X114474560Y-114949860D01*
G75*
G02*
X114224560Y-114699860I0J250000D01*
G01*
X114224560Y-114199860D01*
G75*
G02*
X114474560Y-113949860I250000J0D01*
G01*
G37*
%TD*%
M02*
