%TF.GenerationSoftware,KiCad,Pcbnew,5.1.9*%
%TF.CreationDate,2021-03-15T11:21:12+01:00*%
%TF.ProjectId,keycap,6b657963-6170-42e6-9b69-6361645f7063,rev?*%
%TF.SameCoordinates,Original*%
%TF.FileFunction,Copper,L1,Top*%
%TF.FilePolarity,Positive*%
%FSLAX46Y46*%
G04 Gerber Fmt 4.6, Leading zero omitted, Abs format (unit mm)*
G04 Created by KiCad (PCBNEW 5.1.9) date 2021-03-15 11:21:12*
%MOMM*%
%LPD*%
G01*
G04 APERTURE LIST*
%TA.AperFunction,ComponentPad*%
%ADD10C,2.200000*%
%TD*%
%TA.AperFunction,SMDPad,CuDef*%
%ADD11R,1.000000X1.000000*%
%TD*%
%TA.AperFunction,ViaPad*%
%ADD12C,0.800000*%
%TD*%
%TA.AperFunction,Conductor*%
%ADD13C,0.250000*%
%TD*%
%TA.AperFunction,Conductor*%
%ADD14C,0.254000*%
%TD*%
%TA.AperFunction,Conductor*%
%ADD15C,0.100000*%
%TD*%
G04 APERTURE END LIST*
D10*
%TO.P,SW1,2*%
%TO.N,N/C*%
X125075760Y-109129560D03*
%TO.P,SW1,1*%
X118725760Y-111669560D03*
%TD*%
%TO.P,J3,1*%
%TO.N,GND*%
%TA.AperFunction,SMDPad,CuDef*%
G36*
G01*
X126448120Y-109863000D02*
X127948120Y-109863000D01*
G75*
G02*
X128198120Y-110113000I0J-250000D01*
G01*
X128198120Y-110613000D01*
G75*
G02*
X127948120Y-110863000I-250000J0D01*
G01*
X126448120Y-110863000D01*
G75*
G02*
X126198120Y-110613000I0J250000D01*
G01*
X126198120Y-110113000D01*
G75*
G02*
X126448120Y-109863000I250000J0D01*
G01*
G37*
%TD.AperFunction*%
%TD*%
%TO.P,J9,1*%
%TO.N,N/C*%
%TA.AperFunction,SMDPad,CuDef*%
G36*
G01*
X125595000Y-99961000D02*
X125595000Y-101461000D01*
G75*
G02*
X125345000Y-101711000I-250000J0D01*
G01*
X124845000Y-101711000D01*
G75*
G02*
X124595000Y-101461000I0J250000D01*
G01*
X124595000Y-99961000D01*
G75*
G02*
X124845000Y-99711000I250000J0D01*
G01*
X125345000Y-99711000D01*
G75*
G02*
X125595000Y-99961000I0J-250000D01*
G01*
G37*
%TD.AperFunction*%
%TD*%
%TO.P,J4,1*%
%TO.N,/VCC*%
%TA.AperFunction,SMDPad,CuDef*%
G36*
G01*
X114566000Y-104783000D02*
X116066000Y-104783000D01*
G75*
G02*
X116316000Y-105033000I0J-250000D01*
G01*
X116316000Y-105533000D01*
G75*
G02*
X116066000Y-105783000I-250000J0D01*
G01*
X114566000Y-105783000D01*
G75*
G02*
X114316000Y-105533000I0J250000D01*
G01*
X114316000Y-105033000D01*
G75*
G02*
X114566000Y-104783000I250000J0D01*
G01*
G37*
%TD.AperFunction*%
%TD*%
%TO.P,J1,1*%
%TO.N,/VCC*%
%TA.AperFunction,SMDPad,CuDef*%
G36*
G01*
X127927800Y-105783000D02*
X126427800Y-105783000D01*
G75*
G02*
X126177800Y-105533000I0J250000D01*
G01*
X126177800Y-105033000D01*
G75*
G02*
X126427800Y-104783000I250000J0D01*
G01*
X127927800Y-104783000D01*
G75*
G02*
X128177800Y-105033000I0J-250000D01*
G01*
X128177800Y-105533000D01*
G75*
G02*
X127927800Y-105783000I-250000J0D01*
G01*
G37*
%TD.AperFunction*%
%TD*%
%TO.P,J2,1*%
%TO.N,/DIN*%
%TA.AperFunction,SMDPad,CuDef*%
G36*
G01*
X126468440Y-107307760D02*
X127968440Y-107307760D01*
G75*
G02*
X128218440Y-107557760I0J-250000D01*
G01*
X128218440Y-108057760D01*
G75*
G02*
X127968440Y-108307760I-250000J0D01*
G01*
X126468440Y-108307760D01*
G75*
G02*
X126218440Y-108057760I0J250000D01*
G01*
X126218440Y-107557760D01*
G75*
G02*
X126468440Y-107307760I250000J0D01*
G01*
G37*
%TD.AperFunction*%
%TD*%
%TO.P,J6,1*%
%TO.N,GND*%
%TA.AperFunction,SMDPad,CuDef*%
G36*
G01*
X114566000Y-109863000D02*
X116066000Y-109863000D01*
G75*
G02*
X116316000Y-110113000I0J-250000D01*
G01*
X116316000Y-110613000D01*
G75*
G02*
X116066000Y-110863000I-250000J0D01*
G01*
X114566000Y-110863000D01*
G75*
G02*
X114316000Y-110613000I0J250000D01*
G01*
X114316000Y-110113000D01*
G75*
G02*
X114566000Y-109863000I250000J0D01*
G01*
G37*
%TD.AperFunction*%
%TD*%
D11*
%TO.P,D1,1*%
%TO.N,N/C*%
X121437400Y-112121000D03*
%TO.P,D1,2*%
X121437400Y-109621000D03*
%TD*%
%TO.P,J8,1*%
%TO.N,N/C*%
%TA.AperFunction,SMDPad,CuDef*%
G36*
G01*
X123782200Y-113233900D02*
X123782200Y-111733900D01*
G75*
G02*
X124032200Y-111483900I250000J0D01*
G01*
X124532200Y-111483900D01*
G75*
G02*
X124782200Y-111733900I0J-250000D01*
G01*
X124782200Y-113233900D01*
G75*
G02*
X124532200Y-113483900I-250000J0D01*
G01*
X124032200Y-113483900D01*
G75*
G02*
X123782200Y-113233900I0J250000D01*
G01*
G37*
%TD.AperFunction*%
%TD*%
%TO.P,J5,1*%
%TO.N,/DOUT*%
%TA.AperFunction,SMDPad,CuDef*%
G36*
G01*
X114566000Y-107323000D02*
X116066000Y-107323000D01*
G75*
G02*
X116316000Y-107573000I0J-250000D01*
G01*
X116316000Y-108073000D01*
G75*
G02*
X116066000Y-108323000I-250000J0D01*
G01*
X114566000Y-108323000D01*
G75*
G02*
X114316000Y-108073000I0J250000D01*
G01*
X114316000Y-107573000D01*
G75*
G02*
X114566000Y-107323000I250000J0D01*
G01*
G37*
%TD.AperFunction*%
%TD*%
%TO.P,J7,1*%
%TO.N,N/C*%
%TA.AperFunction,SMDPad,CuDef*%
G36*
G01*
X114566000Y-112403000D02*
X116066000Y-112403000D01*
G75*
G02*
X116316000Y-112653000I0J-250000D01*
G01*
X116316000Y-113153000D01*
G75*
G02*
X116066000Y-113403000I-250000J0D01*
G01*
X114566000Y-113403000D01*
G75*
G02*
X114316000Y-113153000I0J250000D01*
G01*
X114316000Y-112653000D01*
G75*
G02*
X114566000Y-112403000I250000J0D01*
G01*
G37*
%TD.AperFunction*%
%TD*%
%TO.P,C1,1*%
%TO.N,/VCC*%
%TA.AperFunction,SMDPad,CuDef*%
G36*
G01*
X123309600Y-100904279D02*
X123309600Y-102204281D01*
G75*
G02*
X123059601Y-102454280I-249999J0D01*
G01*
X122409599Y-102454280D01*
G75*
G02*
X122159600Y-102204281I0J249999D01*
G01*
X122159600Y-100904279D01*
G75*
G02*
X122409599Y-100654280I249999J0D01*
G01*
X123059601Y-100654280D01*
G75*
G02*
X123309600Y-100904279I0J-249999D01*
G01*
G37*
%TD.AperFunction*%
%TO.P,C1,2*%
%TO.N,GND*%
%TA.AperFunction,SMDPad,CuDef*%
G36*
G01*
X120359600Y-100904279D02*
X120359600Y-102204281D01*
G75*
G02*
X120109601Y-102454280I-249999J0D01*
G01*
X119459599Y-102454280D01*
G75*
G02*
X119209600Y-102204281I0J249999D01*
G01*
X119209600Y-100904279D01*
G75*
G02*
X119459599Y-100654280I249999J0D01*
G01*
X120109601Y-100654280D01*
G75*
G02*
X120359600Y-100904279I0J-249999D01*
G01*
G37*
%TD.AperFunction*%
%TD*%
%TO.P,J10,1*%
%TO.N,N/C*%
%TA.AperFunction,SMDPad,CuDef*%
G36*
G01*
X127965900Y-113428400D02*
X126465900Y-113428400D01*
G75*
G02*
X126215900Y-113178400I0J250000D01*
G01*
X126215900Y-112678400D01*
G75*
G02*
X126465900Y-112428400I250000J0D01*
G01*
X127965900Y-112428400D01*
G75*
G02*
X128215900Y-112678400I0J-250000D01*
G01*
X128215900Y-113178400D01*
G75*
G02*
X127965900Y-113428400I-250000J0D01*
G01*
G37*
%TD.AperFunction*%
%TD*%
D12*
%TO.N,/VCC*%
X123992640Y-102184200D03*
X126078880Y-102766760D03*
%TO.N,GND*%
X117729000Y-101727000D03*
%TO.N,/DIN*%
X122682000Y-103886000D03*
%TO.N,/DOUT*%
X118120760Y-106293558D03*
%TO.N,*%
X125075760Y-104067800D03*
X121450100Y-113220500D03*
X116852700Y-112941100D03*
X125730000Y-112915700D03*
%TO.N,GND*%
X116895760Y-110367960D03*
X125730000Y-111607600D03*
X127165100Y-100990400D03*
X117690900Y-104051100D03*
X123380500Y-110617000D03*
X126238000Y-106565700D03*
%TD*%
D13*
%TO.N,/VCC*%
X115475441Y-102964559D02*
X123445961Y-102964559D01*
X123992640Y-102417880D02*
X123746260Y-102664260D01*
X115122960Y-103317040D02*
X115475441Y-102964559D01*
X126078880Y-102766760D02*
X126873000Y-103560880D01*
X123445961Y-102964559D02*
X123746260Y-102664260D01*
X125217958Y-105283000D02*
X127177800Y-105283000D01*
X123992640Y-102184200D02*
X123992640Y-101498400D01*
X123445961Y-102964559D02*
X123445961Y-103511003D01*
X123992640Y-101498400D02*
X122790480Y-101498400D01*
X123445961Y-103511003D02*
X125217958Y-105283000D01*
X115122960Y-105283000D02*
X115122960Y-103317040D01*
X123992640Y-102184200D02*
X123992640Y-102417880D01*
X126873000Y-104978200D02*
X127177800Y-105283000D01*
X126873000Y-103560880D02*
X126873000Y-104978200D01*
%TO.N,GND*%
X127614680Y-110779560D02*
X127198120Y-110363000D01*
X119784600Y-101554280D02*
X117901720Y-101554280D01*
X114721640Y-110764320D02*
X115122960Y-110363000D01*
X117901720Y-101554280D02*
X117729000Y-101727000D01*
%TO.N,*%
X121666000Y-112242600D02*
X121666000Y-112262920D01*
%TO.N,/DIN*%
X124720760Y-106589560D02*
X124720760Y-105924760D01*
X124720760Y-105924760D02*
X122682000Y-103886000D01*
X125990760Y-107859560D02*
X124720760Y-106589560D01*
X126615760Y-107859560D02*
X125990760Y-107859560D01*
%TO.N,/DOUT*%
X114747040Y-107838240D02*
X116576078Y-107838240D01*
X114768360Y-107859560D02*
X114747040Y-107838240D01*
X116576078Y-107838240D02*
X118120760Y-106293558D01*
%TO.N,*%
X125075760Y-104067800D02*
X125075760Y-100247640D01*
X125075760Y-100247640D02*
X125095000Y-100228400D01*
X127239760Y-112904540D02*
X127215900Y-112928400D01*
X120494920Y-109900400D02*
X118725760Y-111669560D01*
X125075760Y-109129560D02*
X125075760Y-110306040D01*
X124282200Y-111099600D02*
X124282200Y-112483900D01*
X125075760Y-110306040D02*
X124282200Y-111099600D01*
X121475500Y-113195100D02*
X121450100Y-113220500D01*
X121475500Y-112400400D02*
X121475500Y-113195100D01*
X127203200Y-112915700D02*
X127215900Y-112928400D01*
X125730000Y-112915700D02*
X127203200Y-112915700D01*
X115354100Y-112941100D02*
X115316000Y-112903000D01*
X116852700Y-112941100D02*
X115354100Y-112941100D01*
X121158000Y-109900400D02*
X121437400Y-109621000D01*
X120494920Y-109900400D02*
X121158000Y-109900400D01*
X121437400Y-113207800D02*
X121450100Y-113220500D01*
X121437400Y-112121000D02*
X121437400Y-113207800D01*
%TO.N,GND*%
X116890800Y-110363000D02*
X116895760Y-110367960D01*
X115316000Y-110363000D02*
X116890800Y-110363000D01*
X127198120Y-110363000D02*
X127198120Y-110363000D01*
%TD*%
D14*
%TO.N,GND*%
X123960760Y-106239562D02*
X123960760Y-106552238D01*
X123957084Y-106589560D01*
X123960760Y-106626882D01*
X123960760Y-106626892D01*
X123971757Y-106738545D01*
X124015214Y-106881806D01*
X124085786Y-107013836D01*
X124125631Y-107062386D01*
X124180759Y-107129561D01*
X124209763Y-107153364D01*
X124532877Y-107476479D01*
X124253929Y-107592023D01*
X123969762Y-107781897D01*
X123728097Y-108023562D01*
X123538223Y-108307729D01*
X123407435Y-108623479D01*
X123340760Y-108958677D01*
X123340760Y-109300443D01*
X123407435Y-109635641D01*
X123538223Y-109951391D01*
X123728097Y-110235558D01*
X123899769Y-110407230D01*
X123771202Y-110535797D01*
X123742199Y-110559599D01*
X123687071Y-110626774D01*
X123647226Y-110675324D01*
X123581715Y-110797885D01*
X123576654Y-110807354D01*
X123533197Y-110950615D01*
X123527894Y-111004457D01*
X123404238Y-111105938D01*
X123293795Y-111240514D01*
X123211728Y-111394050D01*
X123161192Y-111560646D01*
X123144128Y-111733900D01*
X123144128Y-113233900D01*
X123161192Y-113407154D01*
X123211728Y-113573750D01*
X123293795Y-113727286D01*
X123317820Y-113756560D01*
X122336779Y-113756441D01*
X122367305Y-113710756D01*
X122445326Y-113522398D01*
X122485100Y-113322439D01*
X122485100Y-113118561D01*
X122458846Y-112986572D01*
X122467937Y-112975494D01*
X122526902Y-112865180D01*
X122563212Y-112745482D01*
X122575472Y-112621000D01*
X122575472Y-111621000D01*
X122563212Y-111496518D01*
X122526902Y-111376820D01*
X122467937Y-111266506D01*
X122388585Y-111169815D01*
X122291894Y-111090463D01*
X122181580Y-111031498D01*
X122061882Y-110995188D01*
X121937400Y-110982928D01*
X120937400Y-110982928D01*
X120812918Y-110995188D01*
X120693220Y-111031498D01*
X120582906Y-111090463D01*
X120486215Y-111169815D01*
X120413073Y-111258939D01*
X120394085Y-111163479D01*
X120368474Y-111101648D01*
X120744166Y-110725956D01*
X120812918Y-110746812D01*
X120937400Y-110759072D01*
X121937400Y-110759072D01*
X122061882Y-110746812D01*
X122181580Y-110710502D01*
X122291894Y-110651537D01*
X122388585Y-110572185D01*
X122467937Y-110475494D01*
X122526902Y-110365180D01*
X122563212Y-110245482D01*
X122575472Y-110121000D01*
X122575472Y-109121000D01*
X122563212Y-108996518D01*
X122536779Y-108909380D01*
X122945475Y-108636298D01*
X123312498Y-108269275D01*
X123600867Y-107837701D01*
X123799499Y-107358161D01*
X123900760Y-106849085D01*
X123900760Y-106330035D01*
X123863397Y-106142199D01*
X123960760Y-106239562D01*
%TA.AperFunction,Conductor*%
D15*
G36*
X123960760Y-106239562D02*
G01*
X123960760Y-106552238D01*
X123957084Y-106589560D01*
X123960760Y-106626882D01*
X123960760Y-106626892D01*
X123971757Y-106738545D01*
X124015214Y-106881806D01*
X124085786Y-107013836D01*
X124125631Y-107062386D01*
X124180759Y-107129561D01*
X124209763Y-107153364D01*
X124532877Y-107476479D01*
X124253929Y-107592023D01*
X123969762Y-107781897D01*
X123728097Y-108023562D01*
X123538223Y-108307729D01*
X123407435Y-108623479D01*
X123340760Y-108958677D01*
X123340760Y-109300443D01*
X123407435Y-109635641D01*
X123538223Y-109951391D01*
X123728097Y-110235558D01*
X123899769Y-110407230D01*
X123771202Y-110535797D01*
X123742199Y-110559599D01*
X123687071Y-110626774D01*
X123647226Y-110675324D01*
X123581715Y-110797885D01*
X123576654Y-110807354D01*
X123533197Y-110950615D01*
X123527894Y-111004457D01*
X123404238Y-111105938D01*
X123293795Y-111240514D01*
X123211728Y-111394050D01*
X123161192Y-111560646D01*
X123144128Y-111733900D01*
X123144128Y-113233900D01*
X123161192Y-113407154D01*
X123211728Y-113573750D01*
X123293795Y-113727286D01*
X123317820Y-113756560D01*
X122336779Y-113756441D01*
X122367305Y-113710756D01*
X122445326Y-113522398D01*
X122485100Y-113322439D01*
X122485100Y-113118561D01*
X122458846Y-112986572D01*
X122467937Y-112975494D01*
X122526902Y-112865180D01*
X122563212Y-112745482D01*
X122575472Y-112621000D01*
X122575472Y-111621000D01*
X122563212Y-111496518D01*
X122526902Y-111376820D01*
X122467937Y-111266506D01*
X122388585Y-111169815D01*
X122291894Y-111090463D01*
X122181580Y-111031498D01*
X122061882Y-110995188D01*
X121937400Y-110982928D01*
X120937400Y-110982928D01*
X120812918Y-110995188D01*
X120693220Y-111031498D01*
X120582906Y-111090463D01*
X120486215Y-111169815D01*
X120413073Y-111258939D01*
X120394085Y-111163479D01*
X120368474Y-111101648D01*
X120744166Y-110725956D01*
X120812918Y-110746812D01*
X120937400Y-110759072D01*
X121937400Y-110759072D01*
X122061882Y-110746812D01*
X122181580Y-110710502D01*
X122291894Y-110651537D01*
X122388585Y-110572185D01*
X122467937Y-110475494D01*
X122526902Y-110365180D01*
X122563212Y-110245482D01*
X122575472Y-110121000D01*
X122575472Y-109121000D01*
X122563212Y-108996518D01*
X122536779Y-108909380D01*
X122945475Y-108636298D01*
X123312498Y-108269275D01*
X123600867Y-107837701D01*
X123799499Y-107358161D01*
X123900760Y-106849085D01*
X123900760Y-106330035D01*
X123863397Y-106142199D01*
X123960760Y-106239562D01*
G37*
%TD.AperFunction*%
D14*
X118732021Y-107358161D02*
X118930653Y-107837701D01*
X119219022Y-108269275D01*
X119586045Y-108636298D01*
X120017619Y-108924667D01*
X120306865Y-109044476D01*
X120299328Y-109121000D01*
X120299328Y-109165535D01*
X120202673Y-109194854D01*
X120070643Y-109265426D01*
X119988959Y-109332463D01*
X119954919Y-109360399D01*
X119931121Y-109389397D01*
X119293672Y-110026846D01*
X119231841Y-110001235D01*
X118896643Y-109934560D01*
X118554877Y-109934560D01*
X118219679Y-110001235D01*
X117903929Y-110132023D01*
X117619762Y-110321897D01*
X117378097Y-110563562D01*
X117188223Y-110847729D01*
X117057435Y-111163479D01*
X116990760Y-111498677D01*
X116990760Y-111840443D01*
X117005846Y-111916286D01*
X116954639Y-111906100D01*
X116750761Y-111906100D01*
X116588390Y-111938397D01*
X116559386Y-111914595D01*
X116405850Y-111832528D01*
X116239254Y-111781992D01*
X116066000Y-111764928D01*
X114566000Y-111764928D01*
X114392746Y-111781992D01*
X114226150Y-111832528D01*
X114134240Y-111881655D01*
X114134240Y-111471437D01*
X114191518Y-111488812D01*
X114316000Y-111501072D01*
X115030250Y-111498000D01*
X115189000Y-111339250D01*
X115189000Y-110490000D01*
X115443000Y-110490000D01*
X115443000Y-111339250D01*
X115601750Y-111498000D01*
X116316000Y-111501072D01*
X116440482Y-111488812D01*
X116560180Y-111452502D01*
X116670494Y-111393537D01*
X116767185Y-111314185D01*
X116846537Y-111217494D01*
X116905502Y-111107180D01*
X116941812Y-110987482D01*
X116954072Y-110863000D01*
X116951000Y-110648750D01*
X116792250Y-110490000D01*
X115443000Y-110490000D01*
X115189000Y-110490000D01*
X115169000Y-110490000D01*
X115169000Y-110236000D01*
X115189000Y-110236000D01*
X115189000Y-109386750D01*
X115443000Y-109386750D01*
X115443000Y-110236000D01*
X116792250Y-110236000D01*
X116951000Y-110077250D01*
X116954072Y-109863000D01*
X116941812Y-109738518D01*
X116905502Y-109618820D01*
X116846537Y-109508506D01*
X116767185Y-109411815D01*
X116670494Y-109332463D01*
X116560180Y-109273498D01*
X116440482Y-109237188D01*
X116316000Y-109224928D01*
X115601750Y-109228000D01*
X115443000Y-109386750D01*
X115189000Y-109386750D01*
X115030250Y-109228000D01*
X114316000Y-109224928D01*
X114191518Y-109237188D01*
X114134240Y-109254563D01*
X114134240Y-108844345D01*
X114226150Y-108893472D01*
X114392746Y-108944008D01*
X114566000Y-108961072D01*
X116066000Y-108961072D01*
X116239254Y-108944008D01*
X116405850Y-108893472D01*
X116559386Y-108811405D01*
X116693962Y-108700962D01*
X116804405Y-108566386D01*
X116806453Y-108562554D01*
X116868325Y-108543786D01*
X117000354Y-108473214D01*
X117116079Y-108378241D01*
X117139882Y-108349237D01*
X118160562Y-107328558D01*
X118222699Y-107328558D01*
X118422658Y-107288784D01*
X118611016Y-107210763D01*
X118691946Y-107156688D01*
X118732021Y-107358161D01*
%TA.AperFunction,Conductor*%
D15*
G36*
X118732021Y-107358161D02*
G01*
X118930653Y-107837701D01*
X119219022Y-108269275D01*
X119586045Y-108636298D01*
X120017619Y-108924667D01*
X120306865Y-109044476D01*
X120299328Y-109121000D01*
X120299328Y-109165535D01*
X120202673Y-109194854D01*
X120070643Y-109265426D01*
X119988959Y-109332463D01*
X119954919Y-109360399D01*
X119931121Y-109389397D01*
X119293672Y-110026846D01*
X119231841Y-110001235D01*
X118896643Y-109934560D01*
X118554877Y-109934560D01*
X118219679Y-110001235D01*
X117903929Y-110132023D01*
X117619762Y-110321897D01*
X117378097Y-110563562D01*
X117188223Y-110847729D01*
X117057435Y-111163479D01*
X116990760Y-111498677D01*
X116990760Y-111840443D01*
X117005846Y-111916286D01*
X116954639Y-111906100D01*
X116750761Y-111906100D01*
X116588390Y-111938397D01*
X116559386Y-111914595D01*
X116405850Y-111832528D01*
X116239254Y-111781992D01*
X116066000Y-111764928D01*
X114566000Y-111764928D01*
X114392746Y-111781992D01*
X114226150Y-111832528D01*
X114134240Y-111881655D01*
X114134240Y-111471437D01*
X114191518Y-111488812D01*
X114316000Y-111501072D01*
X115030250Y-111498000D01*
X115189000Y-111339250D01*
X115189000Y-110490000D01*
X115443000Y-110490000D01*
X115443000Y-111339250D01*
X115601750Y-111498000D01*
X116316000Y-111501072D01*
X116440482Y-111488812D01*
X116560180Y-111452502D01*
X116670494Y-111393537D01*
X116767185Y-111314185D01*
X116846537Y-111217494D01*
X116905502Y-111107180D01*
X116941812Y-110987482D01*
X116954072Y-110863000D01*
X116951000Y-110648750D01*
X116792250Y-110490000D01*
X115443000Y-110490000D01*
X115189000Y-110490000D01*
X115169000Y-110490000D01*
X115169000Y-110236000D01*
X115189000Y-110236000D01*
X115189000Y-109386750D01*
X115443000Y-109386750D01*
X115443000Y-110236000D01*
X116792250Y-110236000D01*
X116951000Y-110077250D01*
X116954072Y-109863000D01*
X116941812Y-109738518D01*
X116905502Y-109618820D01*
X116846537Y-109508506D01*
X116767185Y-109411815D01*
X116670494Y-109332463D01*
X116560180Y-109273498D01*
X116440482Y-109237188D01*
X116316000Y-109224928D01*
X115601750Y-109228000D01*
X115443000Y-109386750D01*
X115189000Y-109386750D01*
X115030250Y-109228000D01*
X114316000Y-109224928D01*
X114191518Y-109237188D01*
X114134240Y-109254563D01*
X114134240Y-108844345D01*
X114226150Y-108893472D01*
X114392746Y-108944008D01*
X114566000Y-108961072D01*
X116066000Y-108961072D01*
X116239254Y-108944008D01*
X116405850Y-108893472D01*
X116559386Y-108811405D01*
X116693962Y-108700962D01*
X116804405Y-108566386D01*
X116806453Y-108562554D01*
X116868325Y-108543786D01*
X117000354Y-108473214D01*
X117116079Y-108378241D01*
X117139882Y-108349237D01*
X118160562Y-107328558D01*
X118222699Y-107328558D01*
X118422658Y-107288784D01*
X118611016Y-107210763D01*
X118691946Y-107156688D01*
X118732021Y-107358161D01*
G37*
%TD.AperFunction*%
D14*
X128231871Y-109228252D02*
X128198120Y-109224928D01*
X127483870Y-109228000D01*
X127325120Y-109386750D01*
X127325120Y-110236000D01*
X127345120Y-110236000D01*
X127345120Y-110490000D01*
X127325120Y-110490000D01*
X127325120Y-111339250D01*
X127483870Y-111498000D01*
X128198120Y-111501072D01*
X128231126Y-111497821D01*
X128231015Y-111835258D01*
X128139154Y-111807392D01*
X127965900Y-111790328D01*
X126465900Y-111790328D01*
X126292646Y-111807392D01*
X126126050Y-111857928D01*
X126015236Y-111917160D01*
X125831939Y-111880700D01*
X125628061Y-111880700D01*
X125428102Y-111920474D01*
X125420272Y-111923717D01*
X125420272Y-111733900D01*
X125403208Y-111560646D01*
X125352672Y-111394050D01*
X125270605Y-111240514D01*
X125246031Y-111210570D01*
X125563056Y-110893546D01*
X125572308Y-110987482D01*
X125608618Y-111107180D01*
X125667583Y-111217494D01*
X125746935Y-111314185D01*
X125843626Y-111393537D01*
X125953940Y-111452502D01*
X126073638Y-111488812D01*
X126198120Y-111501072D01*
X126912370Y-111498000D01*
X127071120Y-111339250D01*
X127071120Y-110490000D01*
X127051120Y-110490000D01*
X127051120Y-110236000D01*
X127071120Y-110236000D01*
X127071120Y-109386750D01*
X126912370Y-109228000D01*
X126810760Y-109227563D01*
X126810760Y-108958677D01*
X126808205Y-108945832D01*
X127968440Y-108945832D01*
X128141694Y-108928768D01*
X128231978Y-108901381D01*
X128231871Y-109228252D01*
%TA.AperFunction,Conductor*%
D15*
G36*
X128231871Y-109228252D02*
G01*
X128198120Y-109224928D01*
X127483870Y-109228000D01*
X127325120Y-109386750D01*
X127325120Y-110236000D01*
X127345120Y-110236000D01*
X127345120Y-110490000D01*
X127325120Y-110490000D01*
X127325120Y-111339250D01*
X127483870Y-111498000D01*
X128198120Y-111501072D01*
X128231126Y-111497821D01*
X128231015Y-111835258D01*
X128139154Y-111807392D01*
X127965900Y-111790328D01*
X126465900Y-111790328D01*
X126292646Y-111807392D01*
X126126050Y-111857928D01*
X126015236Y-111917160D01*
X125831939Y-111880700D01*
X125628061Y-111880700D01*
X125428102Y-111920474D01*
X125420272Y-111923717D01*
X125420272Y-111733900D01*
X125403208Y-111560646D01*
X125352672Y-111394050D01*
X125270605Y-111240514D01*
X125246031Y-111210570D01*
X125563056Y-110893546D01*
X125572308Y-110987482D01*
X125608618Y-111107180D01*
X125667583Y-111217494D01*
X125746935Y-111314185D01*
X125843626Y-111393537D01*
X125953940Y-111452502D01*
X126073638Y-111488812D01*
X126198120Y-111501072D01*
X126912370Y-111498000D01*
X127071120Y-111339250D01*
X127071120Y-110490000D01*
X127051120Y-110490000D01*
X127051120Y-110236000D01*
X127071120Y-110236000D01*
X127071120Y-109386750D01*
X126912370Y-109228000D01*
X126810760Y-109227563D01*
X126810760Y-108958677D01*
X126808205Y-108945832D01*
X127968440Y-108945832D01*
X128141694Y-108928768D01*
X128231978Y-108901381D01*
X128231871Y-109228252D01*
G37*
%TD.AperFunction*%
D14*
X121647000Y-103784061D02*
X121647000Y-103978770D01*
X121525285Y-103954560D01*
X121006235Y-103954560D01*
X120497159Y-104055821D01*
X120017619Y-104254453D01*
X119586045Y-104542822D01*
X119219022Y-104909845D01*
X118930653Y-105341419D01*
X118843277Y-105552364D01*
X118780534Y-105489621D01*
X118611016Y-105376353D01*
X118422658Y-105298332D01*
X118222699Y-105258558D01*
X118018821Y-105258558D01*
X117818862Y-105298332D01*
X117630504Y-105376353D01*
X117460986Y-105489621D01*
X117316823Y-105633784D01*
X117203555Y-105803302D01*
X117125534Y-105991660D01*
X117085760Y-106191619D01*
X117085760Y-106253756D01*
X116523893Y-106815624D01*
X116405850Y-106752528D01*
X116239254Y-106701992D01*
X116066000Y-106684928D01*
X114566000Y-106684928D01*
X114392746Y-106701992D01*
X114226150Y-106752528D01*
X114134240Y-106801655D01*
X114134240Y-106304345D01*
X114226150Y-106353472D01*
X114392746Y-106404008D01*
X114566000Y-106421072D01*
X116066000Y-106421072D01*
X116239254Y-106404008D01*
X116405850Y-106353472D01*
X116559386Y-106271405D01*
X116693962Y-106160962D01*
X116804405Y-106026386D01*
X116886472Y-105872850D01*
X116937008Y-105706254D01*
X116954072Y-105533000D01*
X116954072Y-105033000D01*
X116937008Y-104859746D01*
X116886472Y-104693150D01*
X116804405Y-104539614D01*
X116693962Y-104405038D01*
X116559386Y-104294595D01*
X116405850Y-104212528D01*
X116239254Y-104161992D01*
X116066000Y-104144928D01*
X115882960Y-104144928D01*
X115882960Y-103724559D01*
X121658836Y-103724559D01*
X121647000Y-103784061D01*
%TA.AperFunction,Conductor*%
D15*
G36*
X121647000Y-103784061D02*
G01*
X121647000Y-103978770D01*
X121525285Y-103954560D01*
X121006235Y-103954560D01*
X120497159Y-104055821D01*
X120017619Y-104254453D01*
X119586045Y-104542822D01*
X119219022Y-104909845D01*
X118930653Y-105341419D01*
X118843277Y-105552364D01*
X118780534Y-105489621D01*
X118611016Y-105376353D01*
X118422658Y-105298332D01*
X118222699Y-105258558D01*
X118018821Y-105258558D01*
X117818862Y-105298332D01*
X117630504Y-105376353D01*
X117460986Y-105489621D01*
X117316823Y-105633784D01*
X117203555Y-105803302D01*
X117125534Y-105991660D01*
X117085760Y-106191619D01*
X117085760Y-106253756D01*
X116523893Y-106815624D01*
X116405850Y-106752528D01*
X116239254Y-106701992D01*
X116066000Y-106684928D01*
X114566000Y-106684928D01*
X114392746Y-106701992D01*
X114226150Y-106752528D01*
X114134240Y-106801655D01*
X114134240Y-106304345D01*
X114226150Y-106353472D01*
X114392746Y-106404008D01*
X114566000Y-106421072D01*
X116066000Y-106421072D01*
X116239254Y-106404008D01*
X116405850Y-106353472D01*
X116559386Y-106271405D01*
X116693962Y-106160962D01*
X116804405Y-106026386D01*
X116886472Y-105872850D01*
X116937008Y-105706254D01*
X116954072Y-105533000D01*
X116954072Y-105033000D01*
X116937008Y-104859746D01*
X116886472Y-104693150D01*
X116804405Y-104539614D01*
X116693962Y-104405038D01*
X116559386Y-104294595D01*
X116405850Y-104212528D01*
X116239254Y-104161992D01*
X116066000Y-104144928D01*
X115882960Y-104144928D01*
X115882960Y-103724559D01*
X121658836Y-103724559D01*
X121647000Y-103784061D01*
G37*
%TD.AperFunction*%
D14*
X125799838Y-106160962D02*
X125934414Y-106271405D01*
X126087950Y-106353472D01*
X126254546Y-106404008D01*
X126427800Y-106421072D01*
X127927800Y-106421072D01*
X128101054Y-106404008D01*
X128232811Y-106364040D01*
X128232696Y-106714357D01*
X128141694Y-106686752D01*
X127968440Y-106669688D01*
X126468440Y-106669688D01*
X126295186Y-106686752D01*
X126128590Y-106737288D01*
X126007835Y-106801833D01*
X125480760Y-106274759D01*
X125480760Y-106043000D01*
X125703030Y-106043000D01*
X125799838Y-106160962D01*
%TA.AperFunction,Conductor*%
D15*
G36*
X125799838Y-106160962D02*
G01*
X125934414Y-106271405D01*
X126087950Y-106353472D01*
X126254546Y-106404008D01*
X126427800Y-106421072D01*
X127927800Y-106421072D01*
X128101054Y-106404008D01*
X128232811Y-106364040D01*
X128232696Y-106714357D01*
X128141694Y-106686752D01*
X127968440Y-106669688D01*
X126468440Y-106669688D01*
X126295186Y-106686752D01*
X126128590Y-106737288D01*
X126007835Y-106801833D01*
X125480760Y-106274759D01*
X125480760Y-106043000D01*
X125703030Y-106043000D01*
X125799838Y-106160962D01*
G37*
%TD.AperFunction*%
D14*
X123973992Y-99787746D02*
X123956928Y-99961000D01*
X123956928Y-100738240D01*
X123955307Y-100738400D01*
X123931334Y-100738400D01*
X123930608Y-100731025D01*
X123880072Y-100564429D01*
X123798005Y-100410893D01*
X123687562Y-100276318D01*
X123552987Y-100165875D01*
X123399451Y-100083808D01*
X123232855Y-100033272D01*
X123059601Y-100016208D01*
X122409599Y-100016208D01*
X122236345Y-100033272D01*
X122069749Y-100083808D01*
X121916213Y-100165875D01*
X121781638Y-100276318D01*
X121671195Y-100410893D01*
X121589128Y-100564429D01*
X121538592Y-100731025D01*
X121521528Y-100904279D01*
X121521528Y-102204281D01*
X121521555Y-102204559D01*
X120996423Y-102204559D01*
X120994600Y-101840030D01*
X120835850Y-101681280D01*
X119911600Y-101681280D01*
X119911600Y-101701280D01*
X119657600Y-101701280D01*
X119657600Y-101681280D01*
X118733350Y-101681280D01*
X118574600Y-101840030D01*
X118572777Y-102204559D01*
X115512763Y-102204559D01*
X115475440Y-102200883D01*
X115438117Y-102204559D01*
X115438108Y-102204559D01*
X115326455Y-102215556D01*
X115183194Y-102259013D01*
X115051165Y-102329585D01*
X114935440Y-102424558D01*
X114911641Y-102453557D01*
X114611957Y-102753241D01*
X114582960Y-102777039D01*
X114559162Y-102806037D01*
X114559161Y-102806038D01*
X114487986Y-102892764D01*
X114417414Y-103024794D01*
X114387830Y-103122324D01*
X114373958Y-103168054D01*
X114368048Y-103228059D01*
X114359284Y-103317040D01*
X114362961Y-103354372D01*
X114362961Y-104171027D01*
X114226150Y-104212528D01*
X114134240Y-104261655D01*
X114134240Y-100654280D01*
X118571528Y-100654280D01*
X118574600Y-101268530D01*
X118733350Y-101427280D01*
X119657600Y-101427280D01*
X119657600Y-100178030D01*
X119911600Y-100178030D01*
X119911600Y-101427280D01*
X120835850Y-101427280D01*
X120994600Y-101268530D01*
X120997672Y-100654280D01*
X120985412Y-100529798D01*
X120949102Y-100410100D01*
X120890137Y-100299786D01*
X120810785Y-100203095D01*
X120714094Y-100123743D01*
X120603780Y-100064778D01*
X120484082Y-100028468D01*
X120359600Y-100016208D01*
X120070350Y-100019280D01*
X119911600Y-100178030D01*
X119657600Y-100178030D01*
X119498850Y-100019280D01*
X119209600Y-100016208D01*
X119085118Y-100028468D01*
X118965420Y-100064778D01*
X118855106Y-100123743D01*
X118758415Y-100203095D01*
X118679063Y-100299786D01*
X118620098Y-100410100D01*
X118583788Y-100529798D01*
X118571528Y-100654280D01*
X114134240Y-100654280D01*
X114134240Y-99650052D01*
X124017110Y-99645605D01*
X123973992Y-99787746D01*
%TA.AperFunction,Conductor*%
D15*
G36*
X123973992Y-99787746D02*
G01*
X123956928Y-99961000D01*
X123956928Y-100738240D01*
X123955307Y-100738400D01*
X123931334Y-100738400D01*
X123930608Y-100731025D01*
X123880072Y-100564429D01*
X123798005Y-100410893D01*
X123687562Y-100276318D01*
X123552987Y-100165875D01*
X123399451Y-100083808D01*
X123232855Y-100033272D01*
X123059601Y-100016208D01*
X122409599Y-100016208D01*
X122236345Y-100033272D01*
X122069749Y-100083808D01*
X121916213Y-100165875D01*
X121781638Y-100276318D01*
X121671195Y-100410893D01*
X121589128Y-100564429D01*
X121538592Y-100731025D01*
X121521528Y-100904279D01*
X121521528Y-102204281D01*
X121521555Y-102204559D01*
X120996423Y-102204559D01*
X120994600Y-101840030D01*
X120835850Y-101681280D01*
X119911600Y-101681280D01*
X119911600Y-101701280D01*
X119657600Y-101701280D01*
X119657600Y-101681280D01*
X118733350Y-101681280D01*
X118574600Y-101840030D01*
X118572777Y-102204559D01*
X115512763Y-102204559D01*
X115475440Y-102200883D01*
X115438117Y-102204559D01*
X115438108Y-102204559D01*
X115326455Y-102215556D01*
X115183194Y-102259013D01*
X115051165Y-102329585D01*
X114935440Y-102424558D01*
X114911641Y-102453557D01*
X114611957Y-102753241D01*
X114582960Y-102777039D01*
X114559162Y-102806037D01*
X114559161Y-102806038D01*
X114487986Y-102892764D01*
X114417414Y-103024794D01*
X114387830Y-103122324D01*
X114373958Y-103168054D01*
X114368048Y-103228059D01*
X114359284Y-103317040D01*
X114362961Y-103354372D01*
X114362961Y-104171027D01*
X114226150Y-104212528D01*
X114134240Y-104261655D01*
X114134240Y-100654280D01*
X118571528Y-100654280D01*
X118574600Y-101268530D01*
X118733350Y-101427280D01*
X119657600Y-101427280D01*
X119657600Y-100178030D01*
X119911600Y-100178030D01*
X119911600Y-101427280D01*
X120835850Y-101427280D01*
X120994600Y-101268530D01*
X120997672Y-100654280D01*
X120985412Y-100529798D01*
X120949102Y-100410100D01*
X120890137Y-100299786D01*
X120810785Y-100203095D01*
X120714094Y-100123743D01*
X120603780Y-100064778D01*
X120484082Y-100028468D01*
X120359600Y-100016208D01*
X120070350Y-100019280D01*
X119911600Y-100178030D01*
X119657600Y-100178030D01*
X119498850Y-100019280D01*
X119209600Y-100016208D01*
X119085118Y-100028468D01*
X118965420Y-100064778D01*
X118855106Y-100123743D01*
X118758415Y-100203095D01*
X118679063Y-100299786D01*
X118620098Y-100410100D01*
X118583788Y-100529798D01*
X118571528Y-100654280D01*
X114134240Y-100654280D01*
X114134240Y-99650052D01*
X124017110Y-99645605D01*
X123973992Y-99787746D01*
G37*
%TD.AperFunction*%
D14*
X128233520Y-104202175D02*
X128101054Y-104161992D01*
X127927800Y-104144928D01*
X127633000Y-104144928D01*
X127633000Y-103598202D01*
X127636676Y-103560879D01*
X127633000Y-103523556D01*
X127633000Y-103523547D01*
X127622003Y-103411894D01*
X127578546Y-103268633D01*
X127507974Y-103136604D01*
X127413001Y-103020879D01*
X127384004Y-102997082D01*
X127113880Y-102726958D01*
X127113880Y-102664821D01*
X127074106Y-102464862D01*
X126996085Y-102276504D01*
X126882817Y-102106986D01*
X126738654Y-101962823D01*
X126569136Y-101849555D01*
X126380778Y-101771534D01*
X126186111Y-101732813D01*
X126216008Y-101634254D01*
X126233072Y-101461000D01*
X126233072Y-99961000D01*
X126216008Y-99787746D01*
X126172596Y-99644635D01*
X128235016Y-99643708D01*
X128233520Y-104202175D01*
%TA.AperFunction,Conductor*%
D15*
G36*
X128233520Y-104202175D02*
G01*
X128101054Y-104161992D01*
X127927800Y-104144928D01*
X127633000Y-104144928D01*
X127633000Y-103598202D01*
X127636676Y-103560879D01*
X127633000Y-103523556D01*
X127633000Y-103523547D01*
X127622003Y-103411894D01*
X127578546Y-103268633D01*
X127507974Y-103136604D01*
X127413001Y-103020879D01*
X127384004Y-102997082D01*
X127113880Y-102726958D01*
X127113880Y-102664821D01*
X127074106Y-102464862D01*
X126996085Y-102276504D01*
X126882817Y-102106986D01*
X126738654Y-101962823D01*
X126569136Y-101849555D01*
X126380778Y-101771534D01*
X126186111Y-101732813D01*
X126216008Y-101634254D01*
X126233072Y-101461000D01*
X126233072Y-99961000D01*
X126216008Y-99787746D01*
X126172596Y-99644635D01*
X128235016Y-99643708D01*
X128233520Y-104202175D01*
G37*
%TD.AperFunction*%
%TD*%
M02*
