%TF.GenerationSoftware,KiCad,Pcbnew,5.1.9*%
%TF.CreationDate,2021-03-15T11:21:12+01:00*%
%TF.ProjectId,keycap,6b657963-6170-42e6-9b69-6361645f7063,rev?*%
%TF.SameCoordinates,Original*%
%TF.FileFunction,Copper,L2,Bot*%
%TF.FilePolarity,Positive*%
%FSLAX46Y46*%
G04 Gerber Fmt 4.6, Leading zero omitted, Abs format (unit mm)*
G04 Created by KiCad (PCBNEW 5.1.9) date 2021-03-15 11:21:12*
%MOMM*%
%LPD*%
G01*
G04 APERTURE LIST*
%TA.AperFunction,ComponentPad*%
%ADD10C,2.200000*%
%TD*%
%TA.AperFunction,SMDPad,CuDef*%
%ADD11R,0.500000X0.800000*%
%TD*%
%TA.AperFunction,SMDPad,CuDef*%
%ADD12R,0.350000X0.800000*%
%TD*%
%TA.AperFunction,SMDPad,CuDef*%
%ADD13R,0.600000X0.800000*%
%TD*%
%TA.AperFunction,SMDPad,CuDef*%
%ADD14R,0.450000X0.800000*%
%TD*%
%TA.AperFunction,ViaPad*%
%ADD15C,0.800000*%
%TD*%
%TA.AperFunction,Conductor*%
%ADD16C,0.250000*%
%TD*%
%TA.AperFunction,Conductor*%
%ADD17C,0.254000*%
%TD*%
%TA.AperFunction,Conductor*%
%ADD18C,0.100000*%
%TD*%
G04 APERTURE END LIST*
D10*
%TO.P,SW1,2*%
%TO.N,N/C*%
X125075760Y-109129560D03*
%TO.P,SW1,1*%
X118725760Y-111669560D03*
%TD*%
D11*
%TO.P,REF\u002A\u002A,4*%
%TO.N,GND*%
X120045000Y-102272000D03*
D12*
%TO.P,REF\u002A\u002A,3*%
%TO.N,/DOUT*%
X120870000Y-102272000D03*
D13*
%TO.P,REF\u002A\u002A,2*%
%TO.N,/VCC*%
X121745000Y-102272000D03*
D14*
%TO.P,REF\u002A\u002A,1*%
%TO.N,/DIN*%
X122720000Y-102272000D03*
%TD*%
D15*
%TO.N,/VCC*%
X123992640Y-102184200D03*
X126078880Y-102766760D03*
%TO.N,GND*%
X117729000Y-101727000D03*
%TO.N,/DIN*%
X122682000Y-103886000D03*
%TO.N,/DOUT*%
X118120760Y-106293558D03*
%TO.N,*%
X125075760Y-104067800D03*
X121450100Y-113220500D03*
X116852700Y-112941100D03*
X125730000Y-112915700D03*
%TO.N,GND*%
X116895760Y-110367960D03*
X125730000Y-111607600D03*
X127165100Y-100990400D03*
X117690900Y-104051100D03*
X123380500Y-110617000D03*
X126238000Y-106565700D03*
%TD*%
D16*
%TO.N,/VCC*%
X124575200Y-102766760D02*
X126078880Y-102766760D01*
X126078880Y-102766760D02*
X126078880Y-102766760D01*
X123992640Y-102184200D02*
X123992640Y-102184200D01*
X121745000Y-102272000D02*
X121745000Y-101394000D01*
X123992640Y-102184200D02*
X124575200Y-102766760D01*
X126078880Y-102766760D02*
X126078880Y-102766760D01*
X123202440Y-101394000D02*
X121745000Y-101394000D01*
X123992640Y-102184200D02*
X123202440Y-101394000D01*
%TO.N,GND*%
X117729000Y-101727000D02*
X117729000Y-101727000D01*
X117729000Y-101727000D02*
X116895760Y-102560240D01*
X120045000Y-102272000D02*
X120045000Y-102265000D01*
X119507000Y-101727000D02*
X117729000Y-101727000D01*
X120045000Y-102265000D02*
X119507000Y-101727000D01*
%TO.N,/DIN*%
X122720000Y-102272000D02*
X122720000Y-103848000D01*
X122720000Y-103848000D02*
X122682000Y-103886000D01*
%TO.N,/DOUT*%
X118120760Y-106293558D02*
X118120760Y-106293558D01*
X120870000Y-102272000D02*
X120870000Y-103544318D01*
X120870000Y-103544318D02*
X118120760Y-106293558D01*
%TO.N,*%
X125075760Y-109129560D02*
X125075760Y-104067800D01*
X117132100Y-113220500D02*
X116852700Y-112941100D01*
X121450100Y-113220500D02*
X117132100Y-113220500D01*
X125425200Y-113220500D02*
X125730000Y-112915700D01*
X121450100Y-113220500D02*
X125425200Y-113220500D01*
%TO.N,GND*%
X116895760Y-102560240D02*
X116895760Y-110367960D01*
X116895760Y-110367960D02*
X116895760Y-110367960D01*
X116895760Y-110367960D02*
X117295759Y-109967961D01*
X117295759Y-109967961D02*
X122731461Y-109967961D01*
X126698120Y-110863000D02*
X127198120Y-110363000D01*
X123626500Y-110863000D02*
X126698120Y-110863000D01*
X122731461Y-109967961D02*
X123380500Y-110617000D01*
X123380500Y-110617000D02*
X123626500Y-110863000D01*
%TD*%
D17*
%TO.N,GND*%
X128230385Y-113757158D02*
X126333965Y-113756927D01*
X126389774Y-113719637D01*
X126533937Y-113575474D01*
X126647205Y-113405956D01*
X126725226Y-113217598D01*
X126765000Y-113017639D01*
X126765000Y-112813761D01*
X126725226Y-112613802D01*
X126647205Y-112425444D01*
X126533937Y-112255926D01*
X126389774Y-112111763D01*
X126220256Y-111998495D01*
X126031898Y-111920474D01*
X125831939Y-111880700D01*
X125628061Y-111880700D01*
X125428102Y-111920474D01*
X125239744Y-111998495D01*
X125070226Y-112111763D01*
X124926063Y-112255926D01*
X124812795Y-112425444D01*
X124798274Y-112460500D01*
X122153811Y-112460500D01*
X122109874Y-112416563D01*
X121940356Y-112303295D01*
X121751998Y-112225274D01*
X121552039Y-112185500D01*
X121348161Y-112185500D01*
X121148202Y-112225274D01*
X120959844Y-112303295D01*
X120790326Y-112416563D01*
X120746389Y-112460500D01*
X120276092Y-112460500D01*
X120394085Y-112175641D01*
X120460760Y-111840443D01*
X120460760Y-111498677D01*
X120394085Y-111163479D01*
X120263297Y-110847729D01*
X120073423Y-110563562D01*
X119831758Y-110321897D01*
X119547591Y-110132023D01*
X119231841Y-110001235D01*
X118896643Y-109934560D01*
X118554877Y-109934560D01*
X118219679Y-110001235D01*
X117903929Y-110132023D01*
X117619762Y-110321897D01*
X117378097Y-110563562D01*
X117188223Y-110847729D01*
X117057435Y-111163479D01*
X116990760Y-111498677D01*
X116990760Y-111840443D01*
X117005846Y-111916286D01*
X116954639Y-111906100D01*
X116750761Y-111906100D01*
X116550802Y-111945874D01*
X116362444Y-112023895D01*
X116192926Y-112137163D01*
X116048763Y-112281326D01*
X115935495Y-112450844D01*
X115857474Y-112639202D01*
X115817700Y-112839161D01*
X115817700Y-113043039D01*
X115857474Y-113242998D01*
X115935495Y-113431356D01*
X116048763Y-113600874D01*
X116192926Y-113745037D01*
X116208878Y-113755696D01*
X114134240Y-113755443D01*
X114134240Y-106191619D01*
X117085760Y-106191619D01*
X117085760Y-106395497D01*
X117125534Y-106595456D01*
X117203555Y-106783814D01*
X117316823Y-106953332D01*
X117460986Y-107097495D01*
X117630504Y-107210763D01*
X117818862Y-107288784D01*
X118018821Y-107328558D01*
X118222699Y-107328558D01*
X118422658Y-107288784D01*
X118611016Y-107210763D01*
X118691946Y-107156688D01*
X118732021Y-107358161D01*
X118930653Y-107837701D01*
X119219022Y-108269275D01*
X119586045Y-108636298D01*
X120017619Y-108924667D01*
X120497159Y-109123299D01*
X121006235Y-109224560D01*
X121525285Y-109224560D01*
X122034361Y-109123299D01*
X122513901Y-108924667D01*
X122945475Y-108636298D01*
X123312498Y-108269275D01*
X123600867Y-107837701D01*
X123799499Y-107358161D01*
X123900760Y-106849085D01*
X123900760Y-106330035D01*
X123799499Y-105820959D01*
X123600867Y-105341419D01*
X123312498Y-104909845D01*
X123192399Y-104789746D01*
X123341774Y-104689937D01*
X123485937Y-104545774D01*
X123599205Y-104376256D01*
X123677226Y-104187898D01*
X123717000Y-103987939D01*
X123717000Y-103784061D01*
X123677226Y-103584102D01*
X123599205Y-103395744D01*
X123485937Y-103226226D01*
X123480000Y-103220289D01*
X123480000Y-103086449D01*
X123502384Y-103101405D01*
X123690742Y-103179426D01*
X123890701Y-103219200D01*
X123952838Y-103219200D01*
X124011400Y-103277762D01*
X124035199Y-103306761D01*
X124150924Y-103401734D01*
X124243105Y-103451006D01*
X124158555Y-103577544D01*
X124080534Y-103765902D01*
X124040760Y-103965861D01*
X124040760Y-104169739D01*
X124080534Y-104369698D01*
X124158555Y-104558056D01*
X124271823Y-104727574D01*
X124315761Y-104771512D01*
X124315760Y-107566412D01*
X124253929Y-107592023D01*
X123969762Y-107781897D01*
X123728097Y-108023562D01*
X123538223Y-108307729D01*
X123407435Y-108623479D01*
X123340760Y-108958677D01*
X123340760Y-109300443D01*
X123407435Y-109635641D01*
X123538223Y-109951391D01*
X123728097Y-110235558D01*
X123969762Y-110477223D01*
X124253929Y-110667097D01*
X124569679Y-110797885D01*
X124904877Y-110864560D01*
X125246643Y-110864560D01*
X125581841Y-110797885D01*
X125897591Y-110667097D01*
X126181758Y-110477223D01*
X126423423Y-110235558D01*
X126613297Y-109951391D01*
X126744085Y-109635641D01*
X126810760Y-109300443D01*
X126810760Y-108958677D01*
X126744085Y-108623479D01*
X126613297Y-108307729D01*
X126423423Y-108023562D01*
X126181758Y-107781897D01*
X125897591Y-107592023D01*
X125835760Y-107566412D01*
X125835760Y-104771511D01*
X125879697Y-104727574D01*
X125992965Y-104558056D01*
X126070986Y-104369698D01*
X126110760Y-104169739D01*
X126110760Y-103965861D01*
X126078119Y-103801760D01*
X126180819Y-103801760D01*
X126380778Y-103761986D01*
X126569136Y-103683965D01*
X126738654Y-103570697D01*
X126882817Y-103426534D01*
X126996085Y-103257016D01*
X127074106Y-103068658D01*
X127113880Y-102868699D01*
X127113880Y-102664821D01*
X127074106Y-102464862D01*
X126996085Y-102276504D01*
X126882817Y-102106986D01*
X126738654Y-101962823D01*
X126569136Y-101849555D01*
X126380778Y-101771534D01*
X126180819Y-101731760D01*
X125976941Y-101731760D01*
X125776982Y-101771534D01*
X125588624Y-101849555D01*
X125419106Y-101962823D01*
X125375169Y-102006760D01*
X125012622Y-102006760D01*
X124987866Y-101882302D01*
X124909845Y-101693944D01*
X124796577Y-101524426D01*
X124652414Y-101380263D01*
X124482896Y-101266995D01*
X124294538Y-101188974D01*
X124094579Y-101149200D01*
X124032441Y-101149200D01*
X123766243Y-100883002D01*
X123742441Y-100853999D01*
X123626716Y-100759026D01*
X123494687Y-100688454D01*
X123351426Y-100644997D01*
X123239773Y-100634000D01*
X123239762Y-100634000D01*
X123202440Y-100630324D01*
X123165118Y-100634000D01*
X121782333Y-100634000D01*
X121745000Y-100630323D01*
X121707667Y-100634000D01*
X121596014Y-100644997D01*
X121452753Y-100688454D01*
X121320724Y-100759026D01*
X121204999Y-100853999D01*
X121110026Y-100969724D01*
X121039454Y-101101753D01*
X120999360Y-101233928D01*
X120695000Y-101233928D01*
X120570518Y-101246188D01*
X120494654Y-101269201D01*
X120433294Y-101249095D01*
X120326750Y-101237000D01*
X120168000Y-101395750D01*
X120168000Y-101513196D01*
X120164463Y-101517506D01*
X120105498Y-101627820D01*
X120069188Y-101747518D01*
X120056928Y-101872000D01*
X120056928Y-102419000D01*
X119922000Y-102419000D01*
X119922000Y-102399000D01*
X119318750Y-102399000D01*
X119160000Y-102557750D01*
X119157084Y-102657886D01*
X119166588Y-102782608D01*
X119200241Y-102903080D01*
X119256751Y-103014672D01*
X119333945Y-103113094D01*
X119428857Y-103194566D01*
X119537840Y-103255956D01*
X119656706Y-103294905D01*
X119763250Y-103307000D01*
X119917998Y-103152252D01*
X119917998Y-103307000D01*
X120032515Y-103307000D01*
X118080959Y-105258558D01*
X118018821Y-105258558D01*
X117818862Y-105298332D01*
X117630504Y-105376353D01*
X117460986Y-105489621D01*
X117316823Y-105633784D01*
X117203555Y-105803302D01*
X117125534Y-105991660D01*
X117085760Y-106191619D01*
X114134240Y-106191619D01*
X114134240Y-101886114D01*
X119157084Y-101886114D01*
X119160000Y-101986250D01*
X119318750Y-102145000D01*
X119922000Y-102145000D01*
X119922000Y-101395750D01*
X119763250Y-101237000D01*
X119656706Y-101249095D01*
X119537840Y-101288044D01*
X119428857Y-101349434D01*
X119333945Y-101430906D01*
X119256751Y-101529328D01*
X119200241Y-101640920D01*
X119166588Y-101761392D01*
X119157084Y-101886114D01*
X114134240Y-101886114D01*
X114134240Y-99650052D01*
X128235016Y-99643708D01*
X128230385Y-113757158D01*
%TA.AperFunction,Conductor*%
D18*
G36*
X128230385Y-113757158D02*
G01*
X126333965Y-113756927D01*
X126389774Y-113719637D01*
X126533937Y-113575474D01*
X126647205Y-113405956D01*
X126725226Y-113217598D01*
X126765000Y-113017639D01*
X126765000Y-112813761D01*
X126725226Y-112613802D01*
X126647205Y-112425444D01*
X126533937Y-112255926D01*
X126389774Y-112111763D01*
X126220256Y-111998495D01*
X126031898Y-111920474D01*
X125831939Y-111880700D01*
X125628061Y-111880700D01*
X125428102Y-111920474D01*
X125239744Y-111998495D01*
X125070226Y-112111763D01*
X124926063Y-112255926D01*
X124812795Y-112425444D01*
X124798274Y-112460500D01*
X122153811Y-112460500D01*
X122109874Y-112416563D01*
X121940356Y-112303295D01*
X121751998Y-112225274D01*
X121552039Y-112185500D01*
X121348161Y-112185500D01*
X121148202Y-112225274D01*
X120959844Y-112303295D01*
X120790326Y-112416563D01*
X120746389Y-112460500D01*
X120276092Y-112460500D01*
X120394085Y-112175641D01*
X120460760Y-111840443D01*
X120460760Y-111498677D01*
X120394085Y-111163479D01*
X120263297Y-110847729D01*
X120073423Y-110563562D01*
X119831758Y-110321897D01*
X119547591Y-110132023D01*
X119231841Y-110001235D01*
X118896643Y-109934560D01*
X118554877Y-109934560D01*
X118219679Y-110001235D01*
X117903929Y-110132023D01*
X117619762Y-110321897D01*
X117378097Y-110563562D01*
X117188223Y-110847729D01*
X117057435Y-111163479D01*
X116990760Y-111498677D01*
X116990760Y-111840443D01*
X117005846Y-111916286D01*
X116954639Y-111906100D01*
X116750761Y-111906100D01*
X116550802Y-111945874D01*
X116362444Y-112023895D01*
X116192926Y-112137163D01*
X116048763Y-112281326D01*
X115935495Y-112450844D01*
X115857474Y-112639202D01*
X115817700Y-112839161D01*
X115817700Y-113043039D01*
X115857474Y-113242998D01*
X115935495Y-113431356D01*
X116048763Y-113600874D01*
X116192926Y-113745037D01*
X116208878Y-113755696D01*
X114134240Y-113755443D01*
X114134240Y-106191619D01*
X117085760Y-106191619D01*
X117085760Y-106395497D01*
X117125534Y-106595456D01*
X117203555Y-106783814D01*
X117316823Y-106953332D01*
X117460986Y-107097495D01*
X117630504Y-107210763D01*
X117818862Y-107288784D01*
X118018821Y-107328558D01*
X118222699Y-107328558D01*
X118422658Y-107288784D01*
X118611016Y-107210763D01*
X118691946Y-107156688D01*
X118732021Y-107358161D01*
X118930653Y-107837701D01*
X119219022Y-108269275D01*
X119586045Y-108636298D01*
X120017619Y-108924667D01*
X120497159Y-109123299D01*
X121006235Y-109224560D01*
X121525285Y-109224560D01*
X122034361Y-109123299D01*
X122513901Y-108924667D01*
X122945475Y-108636298D01*
X123312498Y-108269275D01*
X123600867Y-107837701D01*
X123799499Y-107358161D01*
X123900760Y-106849085D01*
X123900760Y-106330035D01*
X123799499Y-105820959D01*
X123600867Y-105341419D01*
X123312498Y-104909845D01*
X123192399Y-104789746D01*
X123341774Y-104689937D01*
X123485937Y-104545774D01*
X123599205Y-104376256D01*
X123677226Y-104187898D01*
X123717000Y-103987939D01*
X123717000Y-103784061D01*
X123677226Y-103584102D01*
X123599205Y-103395744D01*
X123485937Y-103226226D01*
X123480000Y-103220289D01*
X123480000Y-103086449D01*
X123502384Y-103101405D01*
X123690742Y-103179426D01*
X123890701Y-103219200D01*
X123952838Y-103219200D01*
X124011400Y-103277762D01*
X124035199Y-103306761D01*
X124150924Y-103401734D01*
X124243105Y-103451006D01*
X124158555Y-103577544D01*
X124080534Y-103765902D01*
X124040760Y-103965861D01*
X124040760Y-104169739D01*
X124080534Y-104369698D01*
X124158555Y-104558056D01*
X124271823Y-104727574D01*
X124315761Y-104771512D01*
X124315760Y-107566412D01*
X124253929Y-107592023D01*
X123969762Y-107781897D01*
X123728097Y-108023562D01*
X123538223Y-108307729D01*
X123407435Y-108623479D01*
X123340760Y-108958677D01*
X123340760Y-109300443D01*
X123407435Y-109635641D01*
X123538223Y-109951391D01*
X123728097Y-110235558D01*
X123969762Y-110477223D01*
X124253929Y-110667097D01*
X124569679Y-110797885D01*
X124904877Y-110864560D01*
X125246643Y-110864560D01*
X125581841Y-110797885D01*
X125897591Y-110667097D01*
X126181758Y-110477223D01*
X126423423Y-110235558D01*
X126613297Y-109951391D01*
X126744085Y-109635641D01*
X126810760Y-109300443D01*
X126810760Y-108958677D01*
X126744085Y-108623479D01*
X126613297Y-108307729D01*
X126423423Y-108023562D01*
X126181758Y-107781897D01*
X125897591Y-107592023D01*
X125835760Y-107566412D01*
X125835760Y-104771511D01*
X125879697Y-104727574D01*
X125992965Y-104558056D01*
X126070986Y-104369698D01*
X126110760Y-104169739D01*
X126110760Y-103965861D01*
X126078119Y-103801760D01*
X126180819Y-103801760D01*
X126380778Y-103761986D01*
X126569136Y-103683965D01*
X126738654Y-103570697D01*
X126882817Y-103426534D01*
X126996085Y-103257016D01*
X127074106Y-103068658D01*
X127113880Y-102868699D01*
X127113880Y-102664821D01*
X127074106Y-102464862D01*
X126996085Y-102276504D01*
X126882817Y-102106986D01*
X126738654Y-101962823D01*
X126569136Y-101849555D01*
X126380778Y-101771534D01*
X126180819Y-101731760D01*
X125976941Y-101731760D01*
X125776982Y-101771534D01*
X125588624Y-101849555D01*
X125419106Y-101962823D01*
X125375169Y-102006760D01*
X125012622Y-102006760D01*
X124987866Y-101882302D01*
X124909845Y-101693944D01*
X124796577Y-101524426D01*
X124652414Y-101380263D01*
X124482896Y-101266995D01*
X124294538Y-101188974D01*
X124094579Y-101149200D01*
X124032441Y-101149200D01*
X123766243Y-100883002D01*
X123742441Y-100853999D01*
X123626716Y-100759026D01*
X123494687Y-100688454D01*
X123351426Y-100644997D01*
X123239773Y-100634000D01*
X123239762Y-100634000D01*
X123202440Y-100630324D01*
X123165118Y-100634000D01*
X121782333Y-100634000D01*
X121745000Y-100630323D01*
X121707667Y-100634000D01*
X121596014Y-100644997D01*
X121452753Y-100688454D01*
X121320724Y-100759026D01*
X121204999Y-100853999D01*
X121110026Y-100969724D01*
X121039454Y-101101753D01*
X120999360Y-101233928D01*
X120695000Y-101233928D01*
X120570518Y-101246188D01*
X120494654Y-101269201D01*
X120433294Y-101249095D01*
X120326750Y-101237000D01*
X120168000Y-101395750D01*
X120168000Y-101513196D01*
X120164463Y-101517506D01*
X120105498Y-101627820D01*
X120069188Y-101747518D01*
X120056928Y-101872000D01*
X120056928Y-102419000D01*
X119922000Y-102419000D01*
X119922000Y-102399000D01*
X119318750Y-102399000D01*
X119160000Y-102557750D01*
X119157084Y-102657886D01*
X119166588Y-102782608D01*
X119200241Y-102903080D01*
X119256751Y-103014672D01*
X119333945Y-103113094D01*
X119428857Y-103194566D01*
X119537840Y-103255956D01*
X119656706Y-103294905D01*
X119763250Y-103307000D01*
X119917998Y-103152252D01*
X119917998Y-103307000D01*
X120032515Y-103307000D01*
X118080959Y-105258558D01*
X118018821Y-105258558D01*
X117818862Y-105298332D01*
X117630504Y-105376353D01*
X117460986Y-105489621D01*
X117316823Y-105633784D01*
X117203555Y-105803302D01*
X117125534Y-105991660D01*
X117085760Y-106191619D01*
X114134240Y-106191619D01*
X114134240Y-101886114D01*
X119157084Y-101886114D01*
X119160000Y-101986250D01*
X119318750Y-102145000D01*
X119922000Y-102145000D01*
X119922000Y-101395750D01*
X119763250Y-101237000D01*
X119656706Y-101249095D01*
X119537840Y-101288044D01*
X119428857Y-101349434D01*
X119333945Y-101430906D01*
X119256751Y-101529328D01*
X119200241Y-101640920D01*
X119166588Y-101761392D01*
X119157084Y-101886114D01*
X114134240Y-101886114D01*
X114134240Y-99650052D01*
X128235016Y-99643708D01*
X128230385Y-113757158D01*
G37*
%TD.AperFunction*%
%TD*%
M02*
