%TF.GenerationSoftware,KiCad,Pcbnew,5.1.9*%
%TF.CreationDate,2021-03-15T11:21:12+01:00*%
%TF.ProjectId,keycap,6b657963-6170-42e6-9b69-6361645f7063,rev?*%
%TF.SameCoordinates,Original*%
%TF.FileFunction,Soldermask,Top*%
%TF.FilePolarity,Negative*%
%FSLAX46Y46*%
G04 Gerber Fmt 4.6, Leading zero omitted, Abs format (unit mm)*
G04 Created by KiCad (PCBNEW 5.1.9) date 2021-03-15 11:21:12*
%MOMM*%
%LPD*%
G01*
G04 APERTURE LIST*
%ADD10C,4.000000*%
%ADD11C,2.200000*%
%ADD12R,1.000000X1.000000*%
G04 APERTURE END LIST*
D10*
%TO.C,SW1*%
X121265760Y-106589560D03*
D11*
X125075760Y-109129560D03*
X118725760Y-111669560D03*
%TD*%
%TO.C,J3*%
G36*
G01*
X126448120Y-109863000D02*
X127948120Y-109863000D01*
G75*
G02*
X128198120Y-110113000I0J-250000D01*
G01*
X128198120Y-110613000D01*
G75*
G02*
X127948120Y-110863000I-250000J0D01*
G01*
X126448120Y-110863000D01*
G75*
G02*
X126198120Y-110613000I0J250000D01*
G01*
X126198120Y-110113000D01*
G75*
G02*
X126448120Y-109863000I250000J0D01*
G01*
G37*
%TD*%
%TO.C,J9*%
G36*
G01*
X125595000Y-99961000D02*
X125595000Y-101461000D01*
G75*
G02*
X125345000Y-101711000I-250000J0D01*
G01*
X124845000Y-101711000D01*
G75*
G02*
X124595000Y-101461000I0J250000D01*
G01*
X124595000Y-99961000D01*
G75*
G02*
X124845000Y-99711000I250000J0D01*
G01*
X125345000Y-99711000D01*
G75*
G02*
X125595000Y-99961000I0J-250000D01*
G01*
G37*
%TD*%
%TO.C,J4*%
G36*
G01*
X114566000Y-104783000D02*
X116066000Y-104783000D01*
G75*
G02*
X116316000Y-105033000I0J-250000D01*
G01*
X116316000Y-105533000D01*
G75*
G02*
X116066000Y-105783000I-250000J0D01*
G01*
X114566000Y-105783000D01*
G75*
G02*
X114316000Y-105533000I0J250000D01*
G01*
X114316000Y-105033000D01*
G75*
G02*
X114566000Y-104783000I250000J0D01*
G01*
G37*
%TD*%
%TO.C,J1*%
G36*
G01*
X127927800Y-105783000D02*
X126427800Y-105783000D01*
G75*
G02*
X126177800Y-105533000I0J250000D01*
G01*
X126177800Y-105033000D01*
G75*
G02*
X126427800Y-104783000I250000J0D01*
G01*
X127927800Y-104783000D01*
G75*
G02*
X128177800Y-105033000I0J-250000D01*
G01*
X128177800Y-105533000D01*
G75*
G02*
X127927800Y-105783000I-250000J0D01*
G01*
G37*
%TD*%
%TO.C,J2*%
G36*
G01*
X126468440Y-107307760D02*
X127968440Y-107307760D01*
G75*
G02*
X128218440Y-107557760I0J-250000D01*
G01*
X128218440Y-108057760D01*
G75*
G02*
X127968440Y-108307760I-250000J0D01*
G01*
X126468440Y-108307760D01*
G75*
G02*
X126218440Y-108057760I0J250000D01*
G01*
X126218440Y-107557760D01*
G75*
G02*
X126468440Y-107307760I250000J0D01*
G01*
G37*
%TD*%
%TO.C,J6*%
G36*
G01*
X114566000Y-109863000D02*
X116066000Y-109863000D01*
G75*
G02*
X116316000Y-110113000I0J-250000D01*
G01*
X116316000Y-110613000D01*
G75*
G02*
X116066000Y-110863000I-250000J0D01*
G01*
X114566000Y-110863000D01*
G75*
G02*
X114316000Y-110613000I0J250000D01*
G01*
X114316000Y-110113000D01*
G75*
G02*
X114566000Y-109863000I250000J0D01*
G01*
G37*
%TD*%
D12*
%TO.C,D1*%
X121437400Y-112121000D03*
X121437400Y-109621000D03*
%TD*%
%TO.C,J8*%
G36*
G01*
X123782200Y-113233900D02*
X123782200Y-111733900D01*
G75*
G02*
X124032200Y-111483900I250000J0D01*
G01*
X124532200Y-111483900D01*
G75*
G02*
X124782200Y-111733900I0J-250000D01*
G01*
X124782200Y-113233900D01*
G75*
G02*
X124532200Y-113483900I-250000J0D01*
G01*
X124032200Y-113483900D01*
G75*
G02*
X123782200Y-113233900I0J250000D01*
G01*
G37*
%TD*%
%TO.C,J5*%
G36*
G01*
X114566000Y-107323000D02*
X116066000Y-107323000D01*
G75*
G02*
X116316000Y-107573000I0J-250000D01*
G01*
X116316000Y-108073000D01*
G75*
G02*
X116066000Y-108323000I-250000J0D01*
G01*
X114566000Y-108323000D01*
G75*
G02*
X114316000Y-108073000I0J250000D01*
G01*
X114316000Y-107573000D01*
G75*
G02*
X114566000Y-107323000I250000J0D01*
G01*
G37*
%TD*%
%TO.C,J7*%
G36*
G01*
X114566000Y-112403000D02*
X116066000Y-112403000D01*
G75*
G02*
X116316000Y-112653000I0J-250000D01*
G01*
X116316000Y-113153000D01*
G75*
G02*
X116066000Y-113403000I-250000J0D01*
G01*
X114566000Y-113403000D01*
G75*
G02*
X114316000Y-113153000I0J250000D01*
G01*
X114316000Y-112653000D01*
G75*
G02*
X114566000Y-112403000I250000J0D01*
G01*
G37*
%TD*%
%TO.C,C1*%
G36*
G01*
X123309600Y-100904279D02*
X123309600Y-102204281D01*
G75*
G02*
X123059601Y-102454280I-249999J0D01*
G01*
X122409599Y-102454280D01*
G75*
G02*
X122159600Y-102204281I0J249999D01*
G01*
X122159600Y-100904279D01*
G75*
G02*
X122409599Y-100654280I249999J0D01*
G01*
X123059601Y-100654280D01*
G75*
G02*
X123309600Y-100904279I0J-249999D01*
G01*
G37*
G36*
G01*
X120359600Y-100904279D02*
X120359600Y-102204281D01*
G75*
G02*
X120109601Y-102454280I-249999J0D01*
G01*
X119459599Y-102454280D01*
G75*
G02*
X119209600Y-102204281I0J249999D01*
G01*
X119209600Y-100904279D01*
G75*
G02*
X119459599Y-100654280I249999J0D01*
G01*
X120109601Y-100654280D01*
G75*
G02*
X120359600Y-100904279I0J-249999D01*
G01*
G37*
%TD*%
%TO.C,J10*%
G36*
G01*
X127965900Y-113428400D02*
X126465900Y-113428400D01*
G75*
G02*
X126215900Y-113178400I0J250000D01*
G01*
X126215900Y-112678400D01*
G75*
G02*
X126465900Y-112428400I250000J0D01*
G01*
X127965900Y-112428400D01*
G75*
G02*
X128215900Y-112678400I0J-250000D01*
G01*
X128215900Y-113178400D01*
G75*
G02*
X127965900Y-113428400I-250000J0D01*
G01*
G37*
%TD*%
M02*
