%TF.GenerationSoftware,KiCad,Pcbnew,5.1.9*%
%TF.CreationDate,2021-03-15T11:21:12+01:00*%
%TF.ProjectId,keycap,6b657963-6170-42e6-9b69-6361645f7063,rev?*%
%TF.SameCoordinates,Original*%
%TF.FileFunction,Legend,Top*%
%TF.FilePolarity,Positive*%
%FSLAX46Y46*%
G04 Gerber Fmt 4.6, Leading zero omitted, Abs format (unit mm)*
G04 Created by KiCad (PCBNEW 5.1.9) date 2021-03-15 11:21:12*
%MOMM*%
%LPD*%
G01*
G04 APERTURE LIST*
%ADD10C,0.120000*%
%ADD11C,0.100000*%
%ADD12C,0.150000*%
G04 APERTURE END LIST*
D10*
%TO.C,SW1*%
X128250760Y-99604560D02*
X128250760Y-113574560D01*
X114280760Y-99604560D02*
X128250760Y-99604560D01*
X114280760Y-113574560D02*
X114280760Y-99604560D01*
X128250760Y-113574560D02*
X114280760Y-113574560D01*
%TO.C,D1*%
X120587400Y-112771000D02*
X122287400Y-112771000D01*
X122287400Y-112771000D02*
X122287400Y-109621000D01*
X120587400Y-112771000D02*
X120587400Y-109621000D01*
%TO.C,C1*%
X121970852Y-102464280D02*
X120548348Y-102464280D01*
X121970852Y-100644280D02*
X120548348Y-100644280D01*
%TO.C,J3*%
D11*
X126822238Y-108920000D02*
X126784142Y-108891428D01*
X126727000Y-108891428D01*
X126669857Y-108920000D01*
X126631761Y-108977142D01*
X126612714Y-109034285D01*
X126593666Y-109148571D01*
X126593666Y-109234285D01*
X126612714Y-109348571D01*
X126631761Y-109405714D01*
X126669857Y-109462857D01*
X126727000Y-109491428D01*
X126765095Y-109491428D01*
X126822238Y-109462857D01*
X126841285Y-109434285D01*
X126841285Y-109234285D01*
X126765095Y-109234285D01*
X127012714Y-109491428D02*
X127012714Y-108891428D01*
X127241285Y-109491428D01*
X127241285Y-108891428D01*
X127431761Y-109491428D02*
X127431761Y-108891428D01*
X127527000Y-108891428D01*
X127584142Y-108920000D01*
X127622238Y-108977142D01*
X127641285Y-109034285D01*
X127660333Y-109148571D01*
X127660333Y-109234285D01*
X127641285Y-109348571D01*
X127622238Y-109405714D01*
X127584142Y-109462857D01*
X127527000Y-109491428D01*
X127431761Y-109491428D01*
%TO.C,J9*%
D12*
X124202000Y-101082428D02*
X124235333Y-101111000D01*
X124268666Y-101196714D01*
X124268666Y-101253857D01*
X124235333Y-101339571D01*
X124168666Y-101396714D01*
X124102000Y-101425285D01*
X123968666Y-101453857D01*
X123868666Y-101453857D01*
X123735333Y-101425285D01*
X123668666Y-101396714D01*
X123602000Y-101339571D01*
X123568666Y-101253857D01*
X123568666Y-101196714D01*
X123602000Y-101111000D01*
X123635333Y-101082428D01*
X123568666Y-100711000D02*
X123568666Y-100596714D01*
X123602000Y-100539571D01*
X123668666Y-100482428D01*
X123802000Y-100453857D01*
X124035333Y-100453857D01*
X124168666Y-100482428D01*
X124235333Y-100539571D01*
X124268666Y-100596714D01*
X124268666Y-100711000D01*
X124235333Y-100768142D01*
X124168666Y-100825285D01*
X124035333Y-100853857D01*
X123802000Y-100853857D01*
X123668666Y-100825285D01*
X123602000Y-100768142D01*
X123568666Y-100711000D01*
X124268666Y-99911000D02*
X124268666Y-100196714D01*
X123568666Y-100196714D01*
%TO.C,J4*%
D11*
X114782666Y-103938428D02*
X114916000Y-104538428D01*
X115049333Y-103938428D01*
X115411238Y-104481285D02*
X115392190Y-104509857D01*
X115335047Y-104538428D01*
X115296952Y-104538428D01*
X115239809Y-104509857D01*
X115201714Y-104452714D01*
X115182666Y-104395571D01*
X115163619Y-104281285D01*
X115163619Y-104195571D01*
X115182666Y-104081285D01*
X115201714Y-104024142D01*
X115239809Y-103967000D01*
X115296952Y-103938428D01*
X115335047Y-103938428D01*
X115392190Y-103967000D01*
X115411238Y-103995571D01*
X115811238Y-104481285D02*
X115792190Y-104509857D01*
X115735047Y-104538428D01*
X115696952Y-104538428D01*
X115639809Y-104509857D01*
X115601714Y-104452714D01*
X115582666Y-104395571D01*
X115563619Y-104281285D01*
X115563619Y-104195571D01*
X115582666Y-104081285D01*
X115601714Y-104024142D01*
X115639809Y-103967000D01*
X115696952Y-103938428D01*
X115735047Y-103938428D01*
X115792190Y-103967000D01*
X115811238Y-103995571D01*
%TO.C,J1*%
X126593666Y-103811428D02*
X126727000Y-104411428D01*
X126860333Y-103811428D01*
X127222238Y-104354285D02*
X127203190Y-104382857D01*
X127146047Y-104411428D01*
X127107952Y-104411428D01*
X127050809Y-104382857D01*
X127012714Y-104325714D01*
X126993666Y-104268571D01*
X126974619Y-104154285D01*
X126974619Y-104068571D01*
X126993666Y-103954285D01*
X127012714Y-103897142D01*
X127050809Y-103840000D01*
X127107952Y-103811428D01*
X127146047Y-103811428D01*
X127203190Y-103840000D01*
X127222238Y-103868571D01*
X127622238Y-104354285D02*
X127603190Y-104382857D01*
X127546047Y-104411428D01*
X127507952Y-104411428D01*
X127450809Y-104382857D01*
X127412714Y-104325714D01*
X127393666Y-104268571D01*
X127374619Y-104154285D01*
X127374619Y-104068571D01*
X127393666Y-103954285D01*
X127412714Y-103897142D01*
X127450809Y-103840000D01*
X127507952Y-103811428D01*
X127546047Y-103811428D01*
X127603190Y-103840000D01*
X127622238Y-103868571D01*
%TO.C,J2*%
X126844476Y-106951428D02*
X126844476Y-106351428D01*
X126939714Y-106351428D01*
X126996857Y-106380000D01*
X127034952Y-106437142D01*
X127054000Y-106494285D01*
X127073047Y-106608571D01*
X127073047Y-106694285D01*
X127054000Y-106808571D01*
X127034952Y-106865714D01*
X126996857Y-106922857D01*
X126939714Y-106951428D01*
X126844476Y-106951428D01*
X127244476Y-106951428D02*
X127244476Y-106351428D01*
X127434952Y-106951428D02*
X127434952Y-106351428D01*
X127663523Y-106951428D01*
X127663523Y-106351428D01*
%TO.C,J6*%
X115011238Y-108920000D02*
X114973142Y-108891428D01*
X114916000Y-108891428D01*
X114858857Y-108920000D01*
X114820761Y-108977142D01*
X114801714Y-109034285D01*
X114782666Y-109148571D01*
X114782666Y-109234285D01*
X114801714Y-109348571D01*
X114820761Y-109405714D01*
X114858857Y-109462857D01*
X114916000Y-109491428D01*
X114954095Y-109491428D01*
X115011238Y-109462857D01*
X115030285Y-109434285D01*
X115030285Y-109234285D01*
X114954095Y-109234285D01*
X115201714Y-109491428D02*
X115201714Y-108891428D01*
X115430285Y-109491428D01*
X115430285Y-108891428D01*
X115620761Y-109491428D02*
X115620761Y-108891428D01*
X115716000Y-108891428D01*
X115773142Y-108920000D01*
X115811238Y-108977142D01*
X115830285Y-109034285D01*
X115849333Y-109148571D01*
X115849333Y-109234285D01*
X115830285Y-109348571D01*
X115811238Y-109405714D01*
X115773142Y-109462857D01*
X115716000Y-109491428D01*
X115620761Y-109491428D01*
%TO.C,D1*%
D12*
X121790626Y-111333097D02*
X121090626Y-111333097D01*
X121090626Y-111190240D01*
X121123960Y-111104525D01*
X121190626Y-111047382D01*
X121257293Y-111018811D01*
X121390626Y-110990240D01*
X121490626Y-110990240D01*
X121623960Y-111018811D01*
X121690626Y-111047382D01*
X121757293Y-111104525D01*
X121790626Y-111190240D01*
X121790626Y-111333097D01*
X121790626Y-110418811D02*
X121790626Y-110761668D01*
X121790626Y-110590240D02*
X121090626Y-110590240D01*
X121190626Y-110647382D01*
X121257293Y-110704525D01*
X121290626Y-110761668D01*
%TO.C,J8*%
X123424760Y-112616568D02*
X123458093Y-112645140D01*
X123491426Y-112730854D01*
X123491426Y-112787997D01*
X123458093Y-112873711D01*
X123391426Y-112930854D01*
X123324760Y-112959425D01*
X123191426Y-112987997D01*
X123091426Y-112987997D01*
X122958093Y-112959425D01*
X122891426Y-112930854D01*
X122824760Y-112873711D01*
X122791426Y-112787997D01*
X122791426Y-112730854D01*
X122824760Y-112645140D01*
X122858093Y-112616568D01*
X122791426Y-112245140D02*
X122791426Y-112130854D01*
X122824760Y-112073711D01*
X122891426Y-112016568D01*
X123024760Y-111987997D01*
X123258093Y-111987997D01*
X123391426Y-112016568D01*
X123458093Y-112073711D01*
X123491426Y-112130854D01*
X123491426Y-112245140D01*
X123458093Y-112302282D01*
X123391426Y-112359425D01*
X123258093Y-112387997D01*
X123024760Y-112387997D01*
X122891426Y-112359425D01*
X122824760Y-112302282D01*
X122791426Y-112245140D01*
X123491426Y-111445140D02*
X123491426Y-111730854D01*
X122791426Y-111730854D01*
%TO.C,J5*%
D11*
X114639809Y-106951428D02*
X114639809Y-106351428D01*
X114735047Y-106351428D01*
X114792190Y-106380000D01*
X114830285Y-106437142D01*
X114849333Y-106494285D01*
X114868380Y-106608571D01*
X114868380Y-106694285D01*
X114849333Y-106808571D01*
X114830285Y-106865714D01*
X114792190Y-106922857D01*
X114735047Y-106951428D01*
X114639809Y-106951428D01*
X115116000Y-106351428D02*
X115192190Y-106351428D01*
X115230285Y-106380000D01*
X115268380Y-106437142D01*
X115287428Y-106551428D01*
X115287428Y-106751428D01*
X115268380Y-106865714D01*
X115230285Y-106922857D01*
X115192190Y-106951428D01*
X115116000Y-106951428D01*
X115077904Y-106922857D01*
X115039809Y-106865714D01*
X115020761Y-106751428D01*
X115020761Y-106551428D01*
X115039809Y-106437142D01*
X115077904Y-106380000D01*
X115116000Y-106351428D01*
X115458857Y-106351428D02*
X115458857Y-106837142D01*
X115477904Y-106894285D01*
X115496952Y-106922857D01*
X115535047Y-106951428D01*
X115611238Y-106951428D01*
X115649333Y-106922857D01*
X115668380Y-106894285D01*
X115687428Y-106837142D01*
X115687428Y-106351428D01*
X115820761Y-106351428D02*
X116049333Y-106351428D01*
X115935047Y-106951428D02*
X115935047Y-106351428D01*
%TO.C,J7*%
D12*
X114844571Y-112076666D02*
X114644571Y-111743333D01*
X114501714Y-112076666D02*
X114501714Y-111376666D01*
X114730285Y-111376666D01*
X114787428Y-111410000D01*
X114816000Y-111443333D01*
X114844571Y-111510000D01*
X114844571Y-111610000D01*
X114816000Y-111676666D01*
X114787428Y-111710000D01*
X114730285Y-111743333D01*
X114501714Y-111743333D01*
X115216000Y-111376666D02*
X115330285Y-111376666D01*
X115387428Y-111410000D01*
X115444571Y-111476666D01*
X115473142Y-111610000D01*
X115473142Y-111843333D01*
X115444571Y-111976666D01*
X115387428Y-112043333D01*
X115330285Y-112076666D01*
X115216000Y-112076666D01*
X115158857Y-112043333D01*
X115101714Y-111976666D01*
X115073142Y-111843333D01*
X115073142Y-111610000D01*
X115101714Y-111476666D01*
X115158857Y-111410000D01*
X115216000Y-111376666D01*
X115673142Y-111376666D02*
X115816000Y-112076666D01*
X115930285Y-111576666D01*
X116044571Y-112076666D01*
X116187428Y-111376666D01*
%TO.C,C1*%
X121185000Y-101824600D02*
X121156428Y-101857933D01*
X121070714Y-101891266D01*
X121013571Y-101891266D01*
X120927857Y-101857933D01*
X120870714Y-101791266D01*
X120842142Y-101724600D01*
X120813571Y-101591266D01*
X120813571Y-101491266D01*
X120842142Y-101357933D01*
X120870714Y-101291266D01*
X120927857Y-101224600D01*
X121013571Y-101191266D01*
X121070714Y-101191266D01*
X121156428Y-101224600D01*
X121185000Y-101257933D01*
X121756428Y-101891266D02*
X121413571Y-101891266D01*
X121585000Y-101891266D02*
X121585000Y-101191266D01*
X121527857Y-101291266D01*
X121470714Y-101357933D01*
X121413571Y-101391266D01*
%TO.C,J10*%
X126769871Y-112127466D02*
X126569871Y-111794133D01*
X126427014Y-112127466D02*
X126427014Y-111427466D01*
X126655585Y-111427466D01*
X126712728Y-111460800D01*
X126741300Y-111494133D01*
X126769871Y-111560800D01*
X126769871Y-111660800D01*
X126741300Y-111727466D01*
X126712728Y-111760800D01*
X126655585Y-111794133D01*
X126427014Y-111794133D01*
X127141300Y-111427466D02*
X127255585Y-111427466D01*
X127312728Y-111460800D01*
X127369871Y-111527466D01*
X127398442Y-111660800D01*
X127398442Y-111894133D01*
X127369871Y-112027466D01*
X127312728Y-112094133D01*
X127255585Y-112127466D01*
X127141300Y-112127466D01*
X127084157Y-112094133D01*
X127027014Y-112027466D01*
X126998442Y-111894133D01*
X126998442Y-111660800D01*
X127027014Y-111527466D01*
X127084157Y-111460800D01*
X127141300Y-111427466D01*
X127598442Y-111427466D02*
X127741300Y-112127466D01*
X127855585Y-111627466D01*
X127969871Y-112127466D01*
X128112728Y-111427466D01*
%TD*%
M02*
