%TF.GenerationSoftware,KiCad,Pcbnew,5.1.9*%
%TF.CreationDate,2021-03-15T11:21:12+01:00*%
%TF.ProjectId,keycap,6b657963-6170-42e6-9b69-6361645f7063,rev?*%
%TF.SameCoordinates,Original*%
%TF.FileFunction,Legend,Bot*%
%TF.FilePolarity,Positive*%
%FSLAX46Y46*%
G04 Gerber Fmt 4.6, Leading zero omitted, Abs format (unit mm)*
G04 Created by KiCad (PCBNEW 5.1.9) date 2021-03-15 11:21:12*
%MOMM*%
%LPD*%
G01*
G04 APERTURE LIST*
%ADD10C,0.100000*%
%ADD11C,0.120000*%
%ADD12C,0.075000*%
G04 APERTURE END LIST*
D10*
X115456500Y-100416171D02*
X115456500Y-100582838D01*
X115823166Y-100654266D02*
X115823166Y-100416171D01*
X115123166Y-100416171D01*
X115123166Y-100654266D01*
X115623166Y-100844742D02*
X115623166Y-101082838D01*
X115823166Y-100797123D02*
X115123166Y-100963790D01*
X115823166Y-101130457D01*
X115123166Y-101249504D02*
X115123166Y-101582838D01*
X115823166Y-101368552D01*
X115823166Y-101773314D02*
X115123166Y-101773314D01*
X115823166Y-102059028D02*
X115423166Y-101844742D01*
X115123166Y-102059028D02*
X115523166Y-101773314D01*
X115756500Y-102559028D02*
X115789833Y-102535219D01*
X115823166Y-102463790D01*
X115823166Y-102416171D01*
X115789833Y-102344742D01*
X115723166Y-102297123D01*
X115656500Y-102273314D01*
X115523166Y-102249504D01*
X115423166Y-102249504D01*
X115289833Y-102273314D01*
X115223166Y-102297123D01*
X115156500Y-102344742D01*
X115123166Y-102416171D01*
X115123166Y-102463790D01*
X115156500Y-102535219D01*
X115189833Y-102559028D01*
X115123166Y-102725695D02*
X115823166Y-103059028D01*
X115123166Y-103059028D02*
X115823166Y-102725695D01*
X115823166Y-104416171D02*
X115823166Y-104392361D01*
X115789833Y-104344742D01*
X115689833Y-104273314D01*
X115489833Y-104154266D01*
X115389833Y-104106647D01*
X115289833Y-104082838D01*
X115223166Y-104082838D01*
X115156500Y-104106647D01*
X115123166Y-104154266D01*
X115123166Y-104178076D01*
X115156500Y-104225695D01*
X115223166Y-104249504D01*
X115256500Y-104249504D01*
X115323166Y-104225695D01*
X115356500Y-104201885D01*
X115489833Y-104059028D01*
X115523166Y-104035219D01*
X115589833Y-104011409D01*
X115689833Y-104011409D01*
X115756500Y-104035219D01*
X115789833Y-104059028D01*
X115823166Y-104106647D01*
X115823166Y-104178076D01*
X115789833Y-104225695D01*
X115756500Y-104249504D01*
X115623166Y-104320933D01*
X115523166Y-104344742D01*
X115456500Y-104344742D01*
X115456500Y-105011409D02*
X115456500Y-105178076D01*
X115823166Y-105249504D02*
X115823166Y-105011409D01*
X115123166Y-105011409D01*
X115123166Y-105249504D01*
X115623166Y-105439980D02*
X115623166Y-105678076D01*
X115823166Y-105392361D02*
X115123166Y-105559028D01*
X115823166Y-105725695D01*
X115123166Y-105844742D02*
X115123166Y-106178076D01*
X115823166Y-105963790D01*
X115823166Y-106368552D02*
X115123166Y-106368552D01*
X115823166Y-106654266D02*
X115423166Y-106439980D01*
X115123166Y-106654266D02*
X115523166Y-106368552D01*
X115756500Y-107154266D02*
X115789833Y-107130457D01*
X115823166Y-107059028D01*
X115823166Y-107011409D01*
X115789833Y-106939980D01*
X115723166Y-106892361D01*
X115656500Y-106868552D01*
X115523166Y-106844742D01*
X115423166Y-106844742D01*
X115289833Y-106868552D01*
X115223166Y-106892361D01*
X115156500Y-106939980D01*
X115123166Y-107011409D01*
X115123166Y-107059028D01*
X115156500Y-107130457D01*
X115189833Y-107154266D01*
X115489833Y-107463790D02*
X115823166Y-107463790D01*
X115123166Y-107297123D02*
X115489833Y-107463790D01*
X115123166Y-107630457D01*
D11*
%TO.C,REF\u002A\u002A*%
X123485000Y-102092000D02*
X123285000Y-102292000D01*
X123485000Y-100292000D02*
X123485000Y-102092000D01*
X119485000Y-100292000D02*
X123485000Y-100292000D01*
X119485000Y-102292000D02*
X119485000Y-100292000D01*
D12*
X122361190Y-101467428D02*
X122304047Y-101481714D01*
X122208809Y-101481714D01*
X122170714Y-101467428D01*
X122151666Y-101453142D01*
X122132619Y-101424571D01*
X122132619Y-101396000D01*
X122151666Y-101367428D01*
X122170714Y-101353142D01*
X122208809Y-101338857D01*
X122285000Y-101324571D01*
X122323095Y-101310285D01*
X122342142Y-101296000D01*
X122361190Y-101267428D01*
X122361190Y-101238857D01*
X122342142Y-101210285D01*
X122323095Y-101196000D01*
X122285000Y-101181714D01*
X122189761Y-101181714D01*
X122132619Y-101196000D01*
X121961190Y-101481714D02*
X121961190Y-101181714D01*
X121732619Y-101481714D02*
X121904047Y-101310285D01*
X121732619Y-101181714D02*
X121961190Y-101353142D01*
X121389761Y-101181714D02*
X121465952Y-101181714D01*
X121504047Y-101196000D01*
X121523095Y-101210285D01*
X121561190Y-101253142D01*
X121580238Y-101310285D01*
X121580238Y-101424571D01*
X121561190Y-101453142D01*
X121542142Y-101467428D01*
X121504047Y-101481714D01*
X121427857Y-101481714D01*
X121389761Y-101467428D01*
X121370714Y-101453142D01*
X121351666Y-101424571D01*
X121351666Y-101353142D01*
X121370714Y-101324571D01*
X121389761Y-101310285D01*
X121427857Y-101296000D01*
X121504047Y-101296000D01*
X121542142Y-101310285D01*
X121561190Y-101324571D01*
X121580238Y-101353142D01*
X121123095Y-101310285D02*
X121161190Y-101296000D01*
X121180238Y-101281714D01*
X121199285Y-101253142D01*
X121199285Y-101238857D01*
X121180238Y-101210285D01*
X121161190Y-101196000D01*
X121123095Y-101181714D01*
X121046904Y-101181714D01*
X121008809Y-101196000D01*
X120989761Y-101210285D01*
X120970714Y-101238857D01*
X120970714Y-101253142D01*
X120989761Y-101281714D01*
X121008809Y-101296000D01*
X121046904Y-101310285D01*
X121123095Y-101310285D01*
X121161190Y-101324571D01*
X121180238Y-101338857D01*
X121199285Y-101367428D01*
X121199285Y-101424571D01*
X121180238Y-101453142D01*
X121161190Y-101467428D01*
X121123095Y-101481714D01*
X121046904Y-101481714D01*
X121008809Y-101467428D01*
X120989761Y-101453142D01*
X120970714Y-101424571D01*
X120970714Y-101367428D01*
X120989761Y-101338857D01*
X121008809Y-101324571D01*
X121046904Y-101310285D01*
X120589761Y-101481714D02*
X120818333Y-101481714D01*
X120704047Y-101481714D02*
X120704047Y-101181714D01*
X120742142Y-101224571D01*
X120780238Y-101253142D01*
X120818333Y-101267428D01*
X120437380Y-101210285D02*
X120418333Y-101196000D01*
X120380238Y-101181714D01*
X120285000Y-101181714D01*
X120246904Y-101196000D01*
X120227857Y-101210285D01*
X120208809Y-101238857D01*
X120208809Y-101267428D01*
X120227857Y-101310285D01*
X120456428Y-101481714D01*
X120208809Y-101481714D01*
%TD*%
M02*
